<?xml version="1.0" encoding="UTF-8" standalone="no"?>
<!DOCTYPE svg PUBLIC "-//W3C//DTD SVG 1.1//EN"
 "http://www.w3.org/Graphics/SVG/1.1/DTD/svg11.dtd">
<!-- Generated by graphviz version 2.38.0 (20140413.2041)
 -->
<!-- Title: controllers_diagram Pages: 1 -->
<svg width="678pt" height="681pt"
 viewBox="0.00 0.00 678.33 681.43" xmlns="http://www.w3.org/2000/svg" xmlns:xlink="http://www.w3.org/1999/xlink">
<g id="graph0" class="graph" transform="scale(1 1) rotate(0) translate(228.605 317.708)">
<title>controllers_diagram</title>
<polygon fill="none" stroke="none" points="-228.605,363.726 -228.605,-317.708 449.72,-317.708 449.72,363.726 -228.605,363.726"/>
<!-- _diagram_info -->
<g id="node1" class="node"><title>_diagram_info</title>
<text text-anchor="start" x="278.28" y="210.9" font-family="Times,serif" font-size="13.00">Controllers diagram</text>
<text text-anchor="start" x="278.28" y="223.9" font-family="Times,serif" font-size="13.00">Date: Apr 09 2017 &#45; 20:25</text>
<text text-anchor="start" x="278.28" y="236.9" font-family="Times,serif" font-size="13.00">Migration version: 9</text>
<text text-anchor="start" x="278.28" y="249.9" font-family="Times,serif" font-size="13.00">Generated by RailRoady 1.5.1</text>
<text text-anchor="start" x="278.28" y="262.9" font-family="Times,serif" font-size="13.00">http://railroady.prestonlee.com</text>
</g>
<!-- AdminController -->
<g id="node2" class="node"><title>AdminController</title>
<path fill="none" stroke="black" d="M-202.448,83.8373C-202.448,83.8373 -114.013,83.8373 -114.013,83.8373 -108.013,83.8373 -102.013,77.8373 -102.013,71.8373 -102.013,71.8373 -102.013,5.83726 -102.013,5.83726 -102.013,-0.162741 -108.013,-6.16274 -114.013,-6.16274 -114.013,-6.16274 -202.448,-6.16274 -202.448,-6.16274 -208.448,-6.16274 -214.448,-0.162741 -214.448,5.83726 -214.448,5.83726 -214.448,71.8373 -214.448,71.8373 -214.448,77.8373 -208.448,83.8373 -202.448,83.8373"/>
<text text-anchor="middle" x="-158.231" y="9.03726" font-family="Times,serif" font-size="14.00">AdminController</text>
<polyline fill="none" stroke="black" points="-214.448,15.8373 -102.013,15.8373 "/>
<text text-anchor="start" x="-206.448" y="31.0373" font-family="Times,serif" font-size="14.00">index</text>
<polyline fill="none" stroke="black" points="-214.448,37.8373 -102.013,37.8373 "/>
<polyline fill="none" stroke="black" points="-214.448,61.8373 -102.013,61.8373 "/>
<text text-anchor="start" x="-206.448" y="77.0373" font-family="Times,serif" font-size="14.00">_layout</text>
</g>
<!-- ApplicationController -->
<g id="node3" class="node"><title>ApplicationController</title>
<path fill="none" stroke="black" d="M-46.4825,78.221C-46.4825,78.221 69.1591,78.221 69.1591,78.221 75.1591,78.221 81.1591,72.221 81.1591,66.221 81.1591,66.221 81.1591,-15.779 81.1591,-15.779 81.1591,-21.779 75.1591,-27.779 69.1591,-27.779 69.1591,-27.779 -46.4825,-27.779 -46.4825,-27.779 -52.4825,-27.779 -58.4825,-21.779 -58.4825,-15.779 -58.4825,-15.779 -58.4825,66.221 -58.4825,66.221 -58.4825,72.221 -52.4825,78.221 -46.4825,78.221"/>
<text text-anchor="middle" x="11.3383" y="-12.579" font-family="Times,serif" font-size="14.00">ApplicationController</text>
<polyline fill="none" stroke="black" points="-58.4825,-5.77901 81.1591,-5.77901 "/>
<polyline fill="none" stroke="black" points="-58.4825,18.221 81.1591,18.221 "/>
<polyline fill="none" stroke="black" points="-58.4825,42.221 81.1591,42.221 "/>
<text text-anchor="start" x="-50.4825" y="57.421" font-family="Times,serif" font-size="14.00">_layout</text>
<text text-anchor="start" x="-50.4825" y="71.421" font-family="Times,serif" font-size="14.00">not_authenticated</text>
</g>
<!-- ApplicationController&#45;&gt;AdminController -->
<g id="edge1" class="edge"><title>ApplicationController&#45;&gt;AdminController</title>
<path fill="none" stroke="black" d="M-58.6108,30.8379C-73.0251,31.9953 -88.0299,33.2002 -101.888,34.313"/>
</g>
<!-- BusController -->
<g id="node4" class="node"><title>BusController</title>
<path fill="none" stroke="black" d="M93.9928,359.226C93.9928,359.226 165.324,359.226 165.324,359.226 171.324,359.226 177.324,353.226 177.324,347.226 177.324,347.226 177.324,169.226 177.324,169.226 177.324,163.226 171.324,157.226 165.324,157.226 165.324,157.226 93.9928,157.226 93.9928,157.226 87.9928,157.226 81.9928,163.226 81.9928,169.226 81.9928,169.226 81.9928,347.226 81.9928,347.226 81.9928,353.226 87.9928,359.226 93.9928,359.226"/>
<text text-anchor="middle" x="129.658" y="172.426" font-family="Times,serif" font-size="14.00">BusController</text>
<polyline fill="none" stroke="black" points="81.9928,179.226 177.324,179.226 "/>
<text text-anchor="start" x="89.9928" y="194.426" font-family="Times,serif" font-size="14.00">index</text>
<text text-anchor="start" x="89.9928" y="208.426" font-family="Times,serif" font-size="14.00">destroy</text>
<text text-anchor="start" x="89.9928" y="222.426" font-family="Times,serif" font-size="14.00">edit</text>
<text text-anchor="start" x="89.9928" y="236.426" font-family="Times,serif" font-size="14.00">create</text>
<text text-anchor="start" x="89.9928" y="250.426" font-family="Times,serif" font-size="14.00">new</text>
<text text-anchor="start" x="89.9928" y="264.426" font-family="Times,serif" font-size="14.00">show</text>
<text text-anchor="start" x="89.9928" y="278.426" font-family="Times,serif" font-size="14.00">update</text>
<polyline fill="none" stroke="black" points="81.9928,285.226 177.324,285.226 "/>
<polyline fill="none" stroke="black" points="81.9928,309.226 177.324,309.226 "/>
<text text-anchor="start" x="89.9928" y="324.426" font-family="Times,serif" font-size="14.00">_layout</text>
<text text-anchor="start" x="89.9928" y="338.426" font-family="Times,serif" font-size="14.00">bus_params</text>
<text text-anchor="start" x="89.9928" y="352.426" font-family="Times,serif" font-size="14.00">set_bus</text>
</g>
<!-- ApplicationController&#45;&gt;BusController -->
<g id="edge2" class="edge"><title>ApplicationController&#45;&gt;BusController</title>
<path fill="none" stroke="black" d="M38.335,78.385C51.2257,103.77 67.0437,134.92 81.8711,164.12"/>
</g>
<!-- FleetsController -->
<g id="node5" class="node"><title>FleetsController</title>
<path fill="none" stroke="black" d="M-19.85,-97.2076C-19.85,-97.2076 63.1363,-97.2076 63.1363,-97.2076 69.1363,-97.2076 75.1363,-103.208 75.1363,-109.208 75.1363,-109.208 75.1363,-301.208 75.1363,-301.208 75.1363,-307.208 69.1363,-313.208 63.1363,-313.208 63.1363,-313.208 -19.85,-313.208 -19.85,-313.208 -25.85,-313.208 -31.85,-307.208 -31.85,-301.208 -31.85,-301.208 -31.85,-109.208 -31.85,-109.208 -31.85,-103.208 -25.85,-97.2076 -19.85,-97.2076"/>
<text text-anchor="middle" x="21.6431" y="-298.008" font-family="Times,serif" font-size="14.00">FleetsController</text>
<polyline fill="none" stroke="black" points="-31.85,-291.208 75.1363,-291.208 "/>
<text text-anchor="start" x="-23.85" y="-276.008" font-family="Times,serif" font-size="14.00">update</text>
<text text-anchor="start" x="-23.85" y="-262.008" font-family="Times,serif" font-size="14.00">destroy</text>
<text text-anchor="start" x="-23.85" y="-248.008" font-family="Times,serif" font-size="14.00">edit</text>
<text text-anchor="start" x="-23.85" y="-234.008" font-family="Times,serif" font-size="14.00">fleets_by_city</text>
<text text-anchor="start" x="-23.85" y="-220.008" font-family="Times,serif" font-size="14.00">index</text>
<text text-anchor="start" x="-23.85" y="-206.008" font-family="Times,serif" font-size="14.00">new</text>
<text text-anchor="start" x="-23.85" y="-192.008" font-family="Times,serif" font-size="14.00">show</text>
<text text-anchor="start" x="-23.85" y="-178.008" font-family="Times,serif" font-size="14.00">create</text>
<polyline fill="none" stroke="black" points="-31.85,-171.208 75.1363,-171.208 "/>
<polyline fill="none" stroke="black" points="-31.85,-147.208 75.1363,-147.208 "/>
<text text-anchor="start" x="-23.85" y="-132.008" font-family="Times,serif" font-size="14.00">_layout</text>
<text text-anchor="start" x="-23.85" y="-118.008" font-family="Times,serif" font-size="14.00">fleet_params</text>
<text text-anchor="start" x="-23.85" y="-104.008" font-family="Times,serif" font-size="14.00">set_fleet</text>
</g>
<!-- ApplicationController&#45;&gt;FleetsController -->
<g id="edge3" class="edge"><title>ApplicationController&#45;&gt;FleetsController</title>
<path fill="none" stroke="black" d="M13.7154,-27.9333C14.6367,-48.5347 15.7267,-72.9095 16.7989,-96.8849"/>
</g>
<!-- HomeController -->
<g id="node6" class="node"><title>HomeController</title>
<path fill="none" stroke="black" d="M138.424,-125.999C138.424,-125.999 222.183,-125.999 222.183,-125.999 228.183,-125.999 234.183,-131.999 234.183,-137.999 234.183,-137.999 234.183,-203.999 234.183,-203.999 234.183,-209.999 228.183,-215.999 222.183,-215.999 222.183,-215.999 138.424,-215.999 138.424,-215.999 132.424,-215.999 126.424,-209.999 126.424,-203.999 126.424,-203.999 126.424,-137.999 126.424,-137.999 126.424,-131.999 132.424,-125.999 138.424,-125.999"/>
<text text-anchor="middle" x="180.303" y="-200.799" font-family="Times,serif" font-size="14.00">HomeController</text>
<polyline fill="none" stroke="black" points="126.424,-193.999 234.183,-193.999 "/>
<text text-anchor="start" x="134.424" y="-178.799" font-family="Times,serif" font-size="14.00">index</text>
<polyline fill="none" stroke="black" points="126.424,-171.999 234.183,-171.999 "/>
<polyline fill="none" stroke="black" points="126.424,-147.999 234.183,-147.999 "/>
<text text-anchor="start" x="134.424" y="-132.799" font-family="Times,serif" font-size="14.00">_layout</text>
</g>
<!-- ApplicationController&#45;&gt;HomeController -->
<g id="edge4" class="edge"><title>ApplicationController&#45;&gt;HomeController</title>
<path fill="none" stroke="black" d="M57.0627,-27.879C83.4508,-58.5237 116.28,-96.6483 141.418,-125.842"/>
</g>
<!-- PackagesController -->
<g id="node7" class="node"><title>PackagesController</title>
<path fill="none" stroke="black" d="M-212.605,-70.1663C-212.605,-70.1663 -89.9909,-70.1663 -89.9909,-70.1663 -83.9909,-70.1663 -77.9909,-76.1663 -77.9909,-82.1663 -77.9909,-82.1663 -77.9909,-288.166 -77.9909,-288.166 -77.9909,-294.166 -83.9909,-300.166 -89.9909,-300.166 -89.9909,-300.166 -212.605,-300.166 -212.605,-300.166 -218.605,-300.166 -224.605,-294.166 -224.605,-288.166 -224.605,-288.166 -224.605,-82.1663 -224.605,-82.1663 -224.605,-76.1663 -218.605,-70.1663 -212.605,-70.1663"/>
<text text-anchor="middle" x="-151.298" y="-284.966" font-family="Times,serif" font-size="14.00">PackagesController</text>
<polyline fill="none" stroke="black" points="-224.605,-278.166 -77.9909,-278.166 "/>
<text text-anchor="start" x="-216.605" y="-262.966" font-family="Times,serif" font-size="14.00">update</text>
<text text-anchor="start" x="-216.605" y="-248.966" font-family="Times,serif" font-size="14.00">destroy</text>
<text text-anchor="start" x="-216.605" y="-234.966" font-family="Times,serif" font-size="14.00">edit</text>
<text text-anchor="start" x="-216.605" y="-220.966" font-family="Times,serif" font-size="14.00">index</text>
<text text-anchor="start" x="-216.605" y="-206.966" font-family="Times,serif" font-size="14.00">new</text>
<text text-anchor="start" x="-216.605" y="-192.966" font-family="Times,serif" font-size="14.00">package_by_status</text>
<text text-anchor="start" x="-216.605" y="-178.966" font-family="Times,serif" font-size="14.00">package_by_trackingid</text>
<text text-anchor="start" x="-216.605" y="-164.966" font-family="Times,serif" font-size="14.00">show</text>
<text text-anchor="start" x="-216.605" y="-150.966" font-family="Times,serif" font-size="14.00">create</text>
<polyline fill="none" stroke="black" points="-224.605,-144.166 -77.9909,-144.166 "/>
<polyline fill="none" stroke="black" points="-224.605,-120.166 -77.9909,-120.166 "/>
<text text-anchor="start" x="-216.605" y="-104.966" font-family="Times,serif" font-size="14.00">_layout</text>
<text text-anchor="start" x="-216.605" y="-90.9663" font-family="Times,serif" font-size="14.00">package_params</text>
<text text-anchor="start" x="-216.605" y="-76.9663" font-family="Times,serif" font-size="14.00">set_package</text>
</g>
<!-- ApplicationController&#45;&gt;PackagesController -->
<g id="edge5" class="edge"><title>ApplicationController&#45;&gt;PackagesController</title>
<path fill="none" stroke="black" d="M-29.7017,-27.8686C-44.3815,-46.8584 -61.4041,-68.879 -77.979,-90.3205"/>
</g>
<!-- SessionsController -->
<g id="node8" class="node"><title>SessionsController</title>
<path fill="none" stroke="black" d="M-167.229,309.088C-167.229,309.088 -69.4494,309.088 -69.4494,309.088 -63.4494,309.088 -57.4494,303.088 -57.4494,297.088 -57.4494,297.088 -57.4494,203.088 -57.4494,203.088 -57.4494,197.088 -63.4494,191.088 -69.4494,191.088 -69.4494,191.088 -167.229,191.088 -167.229,191.088 -173.229,191.088 -179.229,197.088 -179.229,203.088 -179.229,203.088 -179.229,297.088 -179.229,297.088 -179.229,303.088 -173.229,309.088 -167.229,309.088"/>
<text text-anchor="middle" x="-118.339" y="206.288" font-family="Times,serif" font-size="14.00">SessionsController</text>
<polyline fill="none" stroke="black" points="-179.229,213.088 -57.4494,213.088 "/>
<text text-anchor="start" x="-171.229" y="228.288" font-family="Times,serif" font-size="14.00">create</text>
<text text-anchor="start" x="-171.229" y="242.288" font-family="Times,serif" font-size="14.00">destroy</text>
<text text-anchor="start" x="-171.229" y="256.288" font-family="Times,serif" font-size="14.00">new</text>
<polyline fill="none" stroke="black" points="-179.229,263.088 -57.4494,263.088 "/>
<polyline fill="none" stroke="black" points="-179.229,287.088 -57.4494,287.088 "/>
<text text-anchor="start" x="-171.229" y="302.288" font-family="Times,serif" font-size="14.00">_layout</text>
</g>
<!-- ApplicationController&#45;&gt;SessionsController -->
<g id="edge6" class="edge"><title>ApplicationController&#45;&gt;SessionsController</title>
<path fill="none" stroke="black" d="M-19.2292,78.2265C-38.6979,111.986 -63.9515,155.777 -84.0943,190.705"/>
</g>
<!-- UsersController -->
<g id="node9" class="node"><title>UsersController</title>
<path fill="none" stroke="black" d="M128.026,133.812C128.026,133.812 226.557,133.812 226.557,133.812 232.557,133.812 238.557,127.812 238.557,121.812 238.557,121.812 238.557,-0.187688 238.557,-0.187688 238.557,-6.18769 232.557,-12.1877 226.557,-12.1877 226.557,-12.1877 128.026,-12.1877 128.026,-12.1877 122.026,-12.1877 116.026,-6.18769 116.026,-0.187688 116.026,-0.187688 116.026,121.812 116.026,121.812 116.026,127.812 122.026,133.812 128.026,133.812"/>
<text text-anchor="middle" x="177.291" y="3.01231" font-family="Times,serif" font-size="14.00">UsersController</text>
<polyline fill="none" stroke="black" points="116.026,9.81231 238.557,9.81231 "/>
<text text-anchor="start" x="124.026" y="25.0123" font-family="Times,serif" font-size="14.00">create</text>
<text text-anchor="start" x="124.026" y="39.0123" font-family="Times,serif" font-size="14.00">destroy</text>
<text text-anchor="start" x="124.026" y="53.0123" font-family="Times,serif" font-size="14.00">new</text>
<text text-anchor="start" x="124.026" y="67.0123" font-family="Times,serif" font-size="14.00">user_by_document</text>
<polyline fill="none" stroke="black" points="116.026,73.8123 238.557,73.8123 "/>
<polyline fill="none" stroke="black" points="116.026,97.8123 238.557,97.8123 "/>
<text text-anchor="start" x="124.026" y="113.012" font-family="Times,serif" font-size="14.00">_layout</text>
<text text-anchor="start" x="124.026" y="127.012" font-family="Times,serif" font-size="14.00">user_params</text>
</g>
<!-- ApplicationController&#45;&gt;UsersController -->
<g id="edge7" class="edge"><title>ApplicationController&#45;&gt;UsersController</title>
<path fill="none" stroke="black" d="M81.2364,40.2118C92.752,42.6815 104.612,45.2251 115.9,47.6459"/>
</g>
</g>
</svg>
