<?xml version="1.0" encoding="UTF-8" standalone="no"?>
<!DOCTYPE svg PUBLIC "-//W3C//DTD SVG 1.1//EN"
 "http://www.w3.org/Graphics/SVG/1.1/DTD/svg11.dtd">
<!-- Generated by graphviz version 2.38.0 (20140413.2041)
 -->
<!-- Title: controllers_diagram Pages: 1 -->
<svg width="664pt" height="534pt"
 viewBox="0.00 0.00 664.10 534.38" xmlns="http://www.w3.org/2000/svg" xmlns:xlink="http://www.w3.org/1999/xlink">
<g id="graph0" class="graph" transform="scale(1 1) rotate(0) translate(244.382 250.774)">
<title>controllers_diagram</title>
<polygon fill="none" stroke="none" points="-244.382,283.604 -244.382,-250.774 419.72,-250.774 419.72,283.604 -244.382,283.604"/>
<!-- _diagram_info -->
<g id="node1" class="node"><title>_diagram_info</title>
<text text-anchor="start" x="248.28" y="180.9" font-family="Times,serif" font-size="13.00">Controllers diagram</text>
<text text-anchor="start" x="248.28" y="193.9" font-family="Times,serif" font-size="13.00">Date: Apr 08 2017 &#45; 19:34</text>
<text text-anchor="start" x="248.28" y="206.9" font-family="Times,serif" font-size="13.00">Migration version: 6</text>
<text text-anchor="start" x="248.28" y="219.9" font-family="Times,serif" font-size="13.00">Generated by RailRoady 1.5.1</text>
<text text-anchor="start" x="248.28" y="232.9" font-family="Times,serif" font-size="13.00">http://railroady.prestonlee.com</text>
</g>
<!-- ApplicationController -->
<g id="node2" class="node"><title>ApplicationController</title>
<path fill="none" stroke="black" d="M-69.9749,75.0952C-69.9749,75.0952 45.6667,75.0952 45.6667,75.0952 51.6667,75.0952 57.6667,69.0952 57.6667,63.0952 57.6667,63.0952 57.6667,-18.9048 57.6667,-18.9048 57.6667,-24.9048 51.6667,-30.9048 45.6667,-30.9048 45.6667,-30.9048 -69.9749,-30.9048 -69.9749,-30.9048 -75.9749,-30.9048 -81.9749,-24.9048 -81.9749,-18.9048 -81.9749,-18.9048 -81.9749,63.0952 -81.9749,63.0952 -81.9749,69.0952 -75.9749,75.0952 -69.9749,75.0952"/>
<text text-anchor="middle" x="-12.1541" y="-15.7048" font-family="Times,serif" font-size="14.00">ApplicationController</text>
<polyline fill="none" stroke="black" points="-81.9749,-8.90479 57.6667,-8.90479 "/>
<polyline fill="none" stroke="black" points="-81.9749,15.0952 57.6667,15.0952 "/>
<polyline fill="none" stroke="black" points="-81.9749,39.0952 57.6667,39.0952 "/>
<text text-anchor="start" x="-73.9749" y="54.2952" font-family="Times,serif" font-size="14.00">_layout</text>
<text text-anchor="start" x="-73.9749" y="68.2952" font-family="Times,serif" font-size="14.00">not_authenticated</text>
</g>
<!-- BusController -->
<g id="node3" class="node"><title>BusController</title>
<path fill="none" stroke="black" d="M80.0955,276.597C80.0955,276.597 151.427,276.597 151.427,276.597 157.427,276.597 163.427,270.597 163.427,264.597 163.427,264.597 163.427,86.5966 163.427,86.5966 163.427,80.5966 157.427,74.5966 151.427,74.5966 151.427,74.5966 80.0955,74.5966 80.0955,74.5966 74.0955,74.5966 68.0955,80.5966 68.0955,86.5966 68.0955,86.5966 68.0955,264.597 68.0955,264.597 68.0955,270.597 74.0955,276.597 80.0955,276.597"/>
<text text-anchor="middle" x="115.761" y="89.7966" font-family="Times,serif" font-size="14.00">BusController</text>
<polyline fill="none" stroke="black" points="68.0955,96.5966 163.427,96.5966 "/>
<text text-anchor="start" x="76.0955" y="111.797" font-family="Times,serif" font-size="14.00">index</text>
<text text-anchor="start" x="76.0955" y="125.797" font-family="Times,serif" font-size="14.00">destroy</text>
<text text-anchor="start" x="76.0955" y="139.797" font-family="Times,serif" font-size="14.00">edit</text>
<text text-anchor="start" x="76.0955" y="153.797" font-family="Times,serif" font-size="14.00">create</text>
<text text-anchor="start" x="76.0955" y="167.797" font-family="Times,serif" font-size="14.00">new</text>
<text text-anchor="start" x="76.0955" y="181.797" font-family="Times,serif" font-size="14.00">show</text>
<text text-anchor="start" x="76.0955" y="195.797" font-family="Times,serif" font-size="14.00">update</text>
<polyline fill="none" stroke="black" points="68.0955,202.597 163.427,202.597 "/>
<polyline fill="none" stroke="black" points="68.0955,226.597 163.427,226.597 "/>
<text text-anchor="start" x="76.0955" y="241.797" font-family="Times,serif" font-size="14.00">_layout</text>
<text text-anchor="start" x="76.0955" y="255.797" font-family="Times,serif" font-size="14.00">bus_params</text>
<text text-anchor="start" x="76.0955" y="269.797" font-family="Times,serif" font-size="14.00">set_bus</text>
</g>
<!-- ApplicationController&#45;&gt;BusController -->
<g id="edge1" class="edge"><title>ApplicationController&#45;&gt;BusController</title>
<path fill="none" stroke="black" d="M32.2254,75.3517C43.7707,89.2064 56.2579,104.191 67.971,118.247"/>
</g>
<!-- FleetsController -->
<g id="node4" class="node"><title>FleetsController</title>
<path fill="none" stroke="black" d="M-188.01,279.104C-188.01,279.104 -105.024,279.104 -105.024,279.104 -99.0241,279.104 -93.0241,273.104 -93.0241,267.104 -93.0241,267.104 -93.0241,89.1044 -93.0241,89.1044 -93.0241,83.1044 -99.0241,77.1044 -105.024,77.1044 -105.024,77.1044 -188.01,77.1044 -188.01,77.1044 -194.01,77.1044 -200.01,83.1044 -200.01,89.1044 -200.01,89.1044 -200.01,267.104 -200.01,267.104 -200.01,273.104 -194.01,279.104 -188.01,279.104"/>
<text text-anchor="middle" x="-146.517" y="92.3044" font-family="Times,serif" font-size="14.00">FleetsController</text>
<polyline fill="none" stroke="black" points="-200.01,99.1044 -93.0241,99.1044 "/>
<text text-anchor="start" x="-192.01" y="114.304" font-family="Times,serif" font-size="14.00">index</text>
<text text-anchor="start" x="-192.01" y="128.304" font-family="Times,serif" font-size="14.00">destroy</text>
<text text-anchor="start" x="-192.01" y="142.304" font-family="Times,serif" font-size="14.00">edit</text>
<text text-anchor="start" x="-192.01" y="156.304" font-family="Times,serif" font-size="14.00">create</text>
<text text-anchor="start" x="-192.01" y="170.304" font-family="Times,serif" font-size="14.00">new</text>
<text text-anchor="start" x="-192.01" y="184.304" font-family="Times,serif" font-size="14.00">show</text>
<text text-anchor="start" x="-192.01" y="198.304" font-family="Times,serif" font-size="14.00">update</text>
<polyline fill="none" stroke="black" points="-200.01,205.104 -93.0241,205.104 "/>
<polyline fill="none" stroke="black" points="-200.01,229.104 -93.0241,229.104 "/>
<text text-anchor="start" x="-192.01" y="244.304" font-family="Times,serif" font-size="14.00">_layout</text>
<text text-anchor="start" x="-192.01" y="258.304" font-family="Times,serif" font-size="14.00">fleet_params</text>
<text text-anchor="start" x="-192.01" y="272.304" font-family="Times,serif" font-size="14.00">set_fleet</text>
</g>
<!-- ApplicationController&#45;&gt;FleetsController -->
<g id="edge2" class="edge"><title>ApplicationController&#45;&gt;FleetsController</title>
<path fill="none" stroke="black" d="M-58.0185,75.3484C-69.2699,88.4125 -81.4113,102.51 -92.9881,115.952"/>
</g>
<!-- HomeController -->
<g id="node5" class="node"><title>HomeController</title>
<path fill="none" stroke="black" d="M-228.382,-58.5656C-228.382,-58.5656 -144.623,-58.5656 -144.623,-58.5656 -138.623,-58.5656 -132.623,-64.5656 -132.623,-70.5656 -132.623,-70.5656 -132.623,-136.566 -132.623,-136.566 -132.623,-142.566 -138.623,-148.566 -144.623,-148.566 -144.623,-148.566 -228.382,-148.566 -228.382,-148.566 -234.382,-148.566 -240.382,-142.566 -240.382,-136.566 -240.382,-136.566 -240.382,-70.5656 -240.382,-70.5656 -240.382,-64.5656 -234.382,-58.5656 -228.382,-58.5656"/>
<text text-anchor="middle" x="-186.503" y="-133.366" font-family="Times,serif" font-size="14.00">HomeController</text>
<polyline fill="none" stroke="black" points="-240.382,-126.566 -132.623,-126.566 "/>
<text text-anchor="start" x="-232.382" y="-111.366" font-family="Times,serif" font-size="14.00">index</text>
<polyline fill="none" stroke="black" points="-240.382,-104.566 -132.623,-104.566 "/>
<polyline fill="none" stroke="black" points="-240.382,-80.5656 -132.623,-80.5656 "/>
<text text-anchor="start" x="-232.382" y="-65.3656" font-family="Times,serif" font-size="14.00">_layout</text>
</g>
<!-- ApplicationController&#45;&gt;HomeController -->
<g id="edge3" class="edge"><title>ApplicationController&#45;&gt;HomeController</title>
<path fill="none" stroke="black" d="M-82.0637,-28.2918C-98.832,-40.3775 -116.488,-53.1031 -132.414,-64.5818"/>
</g>
<!-- SessionsController -->
<g id="node6" class="node"><title>SessionsController</title>
<path fill="none" stroke="black" d="M97.1676,-59.9504C97.1676,-59.9504 194.947,-59.9504 194.947,-59.9504 200.947,-59.9504 206.947,-65.9504 206.947,-71.9504 206.947,-71.9504 206.947,-165.95 206.947,-165.95 206.947,-171.95 200.947,-177.95 194.947,-177.95 194.947,-177.95 97.1676,-177.95 97.1676,-177.95 91.1676,-177.95 85.1676,-171.95 85.1676,-165.95 85.1676,-165.95 85.1676,-71.9504 85.1676,-71.9504 85.1676,-65.9504 91.1676,-59.9504 97.1676,-59.9504"/>
<text text-anchor="middle" x="146.057" y="-162.75" font-family="Times,serif" font-size="14.00">SessionsController</text>
<polyline fill="none" stroke="black" points="85.1676,-155.95 206.947,-155.95 "/>
<text text-anchor="start" x="93.1676" y="-140.75" font-family="Times,serif" font-size="14.00">create</text>
<text text-anchor="start" x="93.1676" y="-126.75" font-family="Times,serif" font-size="14.00">destroy</text>
<text text-anchor="start" x="93.1676" y="-112.75" font-family="Times,serif" font-size="14.00">new</text>
<polyline fill="none" stroke="black" points="85.1676,-105.95 206.947,-105.95 "/>
<polyline fill="none" stroke="black" points="85.1676,-81.9504 206.947,-81.9504 "/>
<text text-anchor="start" x="93.1676" y="-66.7504" font-family="Times,serif" font-size="14.00">_layout</text>
</g>
<!-- ApplicationController&#45;&gt;SessionsController -->
<g id="edge4" class="edge"><title>ApplicationController&#45;&gt;SessionsController</title>
<path fill="none" stroke="black" d="M47.6588,-31.2281C59.9095,-42.1497 72.8177,-53.6573 85.1078,-64.614"/>
</g>
<!-- UsersController -->
<g id="node7" class="node"><title>UsersController</title>
<path fill="none" stroke="black" d="M-72.6435,-128.274C-72.6435,-128.274 8.78424,-128.274 8.78424,-128.274 14.7842,-128.274 20.7842,-134.274 20.7842,-140.274 20.7842,-140.274 20.7842,-234.274 20.7842,-234.274 20.7842,-240.274 14.7842,-246.274 8.78424,-246.274 8.78424,-246.274 -72.6435,-246.274 -72.6435,-246.274 -78.6435,-246.274 -84.6435,-240.274 -84.6435,-234.274 -84.6435,-234.274 -84.6435,-140.274 -84.6435,-140.274 -84.6435,-134.274 -78.6435,-128.274 -72.6435,-128.274"/>
<text text-anchor="middle" x="-31.9296" y="-231.074" font-family="Times,serif" font-size="14.00">UsersController</text>
<polyline fill="none" stroke="black" points="-84.6435,-224.274 20.7842,-224.274 "/>
<text text-anchor="start" x="-76.6435" y="-209.074" font-family="Times,serif" font-size="14.00">create</text>
<text text-anchor="start" x="-76.6435" y="-195.074" font-family="Times,serif" font-size="14.00">new</text>
<polyline fill="none" stroke="black" points="-84.6435,-188.274 20.7842,-188.274 "/>
<polyline fill="none" stroke="black" points="-84.6435,-164.274 20.7842,-164.274 "/>
<text text-anchor="start" x="-76.6435" y="-149.074" font-family="Times,serif" font-size="14.00">_layout</text>
<text text-anchor="start" x="-76.6435" y="-135.074" font-family="Times,serif" font-size="14.00">user_params</text>
</g>
<!-- ApplicationController&#45;&gt;UsersController -->
<g id="edge5" class="edge"><title>ApplicationController&#45;&gt;UsersController</title>
<path fill="none" stroke="black" d="M-17.1699,-31.0081C-19.9619,-60.5682 -23.4449,-97.4436 -26.3262,-127.948"/>
</g>
</g>
</svg>
