<?xml version="1.0" encoding="UTF-8" standalone="no"?>
<!DOCTYPE svg PUBLIC "-//W3C//DTD SVG 1.1//EN"
 "http://www.w3.org/Graphics/SVG/1.1/DTD/svg11.dtd">
<!-- Generated by graphviz version 2.38.0 (20140413.2041)
 -->
<!-- Title: controllers_diagram Pages: 1 -->
<svg width="543pt" height="445pt"
 viewBox="0.00 0.00 543.43 445.00" xmlns="http://www.w3.org/2000/svg" xmlns:xlink="http://www.w3.org/1999/xlink">
<g id="graph0" class="graph" transform="scale(1 1) rotate(0) translate(198.714 246.5)">
<title>controllers_diagram</title>
<polygon fill="none" stroke="none" points="-198.714,198.5 -198.714,-246.5 344.72,-246.5 344.72,198.5 -198.714,198.5"/>
<!-- _diagram_info -->
<g id="node1" class="node"><title>_diagram_info</title>
<text text-anchor="start" x="173.28" y="-224.1" font-family="Times,serif" font-size="13.00">Controllers diagram</text>
<text text-anchor="start" x="173.28" y="-211.1" font-family="Times,serif" font-size="13.00">Date: Apr 08 2017 &#45; 19:09</text>
<text text-anchor="start" x="173.28" y="-198.1" font-family="Times,serif" font-size="13.00">Migration version: 5</text>
<text text-anchor="start" x="173.28" y="-185.1" font-family="Times,serif" font-size="13.00">Generated by RailRoady 1.5.1</text>
<text text-anchor="start" x="173.28" y="-172.1" font-family="Times,serif" font-size="13.00">http://railroady.prestonlee.com</text>
</g>
<!-- ApplicationController -->
<g id="node2" class="node"><title>ApplicationController</title>
<path fill="none" stroke="black" d="M-77.8208,-136C-77.8208,-136 37.8208,-136 37.8208,-136 43.8208,-136 49.8208,-142 49.8208,-148 49.8208,-148 49.8208,-230 49.8208,-230 49.8208,-236 43.8208,-242 37.8208,-242 37.8208,-242 -77.8208,-242 -77.8208,-242 -83.8208,-242 -89.8208,-236 -89.8208,-230 -89.8208,-230 -89.8208,-148 -89.8208,-148 -89.8208,-142 -83.8208,-136 -77.8208,-136"/>
<text text-anchor="middle" x="-20" y="-226.8" font-family="Times,serif" font-size="14.00">ApplicationController</text>
<polyline fill="none" stroke="black" points="-89.8208,-220 49.8208,-220 "/>
<polyline fill="none" stroke="black" points="-89.8208,-196 49.8208,-196 "/>
<polyline fill="none" stroke="black" points="-89.8208,-172 49.8208,-172 "/>
<text text-anchor="start" x="-81.8208" y="-156.8" font-family="Times,serif" font-size="14.00">_layout</text>
<text text-anchor="start" x="-81.8208" y="-142.8" font-family="Times,serif" font-size="14.00">not_authenticated</text>
</g>
<!-- BusController -->
<g id="node3" class="node"><title>BusController</title>
<path fill="none" stroke="black" d="M87.3345,74C87.3345,74 158.666,74 158.666,74 164.666,74 170.666,68 170.666,62 170.666,62 170.666,-116 170.666,-116 170.666,-122 164.666,-128 158.666,-128 158.666,-128 87.3345,-128 87.3345,-128 81.3345,-128 75.3345,-122 75.3345,-116 75.3345,-116 75.3345,62 75.3345,62 75.3345,68 81.3345,74 87.3345,74"/>
<text text-anchor="middle" x="123" y="-112.8" font-family="Times,serif" font-size="14.00">BusController</text>
<polyline fill="none" stroke="black" points="75.3345,-106 170.666,-106 "/>
<text text-anchor="start" x="83.3345" y="-90.8" font-family="Times,serif" font-size="14.00">index</text>
<text text-anchor="start" x="83.3345" y="-76.8" font-family="Times,serif" font-size="14.00">destroy</text>
<text text-anchor="start" x="83.3345" y="-62.8" font-family="Times,serif" font-size="14.00">edit</text>
<text text-anchor="start" x="83.3345" y="-48.8" font-family="Times,serif" font-size="14.00">create</text>
<text text-anchor="start" x="83.3345" y="-34.8" font-family="Times,serif" font-size="14.00">new</text>
<text text-anchor="start" x="83.3345" y="-20.8" font-family="Times,serif" font-size="14.00">show</text>
<text text-anchor="start" x="83.3345" y="-6.8" font-family="Times,serif" font-size="14.00">update</text>
<polyline fill="none" stroke="black" points="75.3345,-0 170.666,-0 "/>
<polyline fill="none" stroke="black" points="75.3345,24 170.666,24 "/>
<text text-anchor="start" x="83.3345" y="39.2" font-family="Times,serif" font-size="14.00">_layout</text>
<text text-anchor="start" x="83.3345" y="53.2" font-family="Times,serif" font-size="14.00">bus_params</text>
<text text-anchor="start" x="83.3345" y="67.2" font-family="Times,serif" font-size="14.00">set_bus</text>
</g>
<!-- FleetsController -->
<g id="node4" class="node"><title>FleetsController</title>
<path fill="none" stroke="black" d="M-48.4932,104C-48.4932,104 34.4932,104 34.4932,104 40.4932,104 46.4932,98 46.4932,92 46.4932,92 46.4932,-86 46.4932,-86 46.4932,-92 40.4932,-98 34.4932,-98 34.4932,-98 -48.4932,-98 -48.4932,-98 -54.4932,-98 -60.4932,-92 -60.4932,-86 -60.4932,-86 -60.4932,92 -60.4932,92 -60.4932,98 -54.4932,104 -48.4932,104"/>
<text text-anchor="middle" x="-7" y="-82.8" font-family="Times,serif" font-size="14.00">FleetsController</text>
<polyline fill="none" stroke="black" points="-60.4932,-76 46.4932,-76 "/>
<text text-anchor="start" x="-52.4932" y="-60.8" font-family="Times,serif" font-size="14.00">index</text>
<text text-anchor="start" x="-52.4932" y="-46.8" font-family="Times,serif" font-size="14.00">destroy</text>
<text text-anchor="start" x="-52.4932" y="-32.8" font-family="Times,serif" font-size="14.00">edit</text>
<text text-anchor="start" x="-52.4932" y="-18.8" font-family="Times,serif" font-size="14.00">create</text>
<text text-anchor="start" x="-52.4932" y="-4.8" font-family="Times,serif" font-size="14.00">new</text>
<text text-anchor="start" x="-52.4932" y="9.2" font-family="Times,serif" font-size="14.00">show</text>
<text text-anchor="start" x="-52.4932" y="23.2" font-family="Times,serif" font-size="14.00">update</text>
<polyline fill="none" stroke="black" points="-60.4932,30 46.4932,30 "/>
<polyline fill="none" stroke="black" points="-60.4932,54 46.4932,54 "/>
<text text-anchor="start" x="-52.4932" y="69.2" font-family="Times,serif" font-size="14.00">_layout</text>
<text text-anchor="start" x="-52.4932" y="83.2" font-family="Times,serif" font-size="14.00">fleet_params</text>
<text text-anchor="start" x="-52.4932" y="97.2" font-family="Times,serif" font-size="14.00">set_fleet</text>
</g>
<!-- HomeController -->
<g id="node5" class="node"><title>HomeController</title>
<path fill="none" stroke="black" d="M207.121,44C207.121,44 290.879,44 290.879,44 296.879,44 302.879,38 302.879,32 302.879,32 302.879,-34 302.879,-34 302.879,-40 296.879,-46 290.879,-46 290.879,-46 207.121,-46 207.121,-46 201.121,-46 195.121,-40 195.121,-34 195.121,-34 195.121,32 195.121,32 195.121,38 201.121,44 207.121,44"/>
<text text-anchor="middle" x="249" y="-30.8" font-family="Times,serif" font-size="14.00">HomeController</text>
<polyline fill="none" stroke="black" points="195.121,-24 302.879,-24 "/>
<text text-anchor="start" x="203.121" y="-8.8" font-family="Times,serif" font-size="14.00">index</text>
<polyline fill="none" stroke="black" points="195.121,-2 302.879,-2 "/>
<polyline fill="none" stroke="black" points="195.121,22 302.879,22 "/>
<text text-anchor="start" x="203.121" y="37.2" font-family="Times,serif" font-size="14.00">_layout</text>
</g>
<!-- SessionsController -->
<g id="node6" class="node"><title>SessionsController</title>
<path fill="none" stroke="black" d="M207.11,194C207.11,194 304.89,194 304.89,194 310.89,194 316.89,188 316.89,182 316.89,182 316.89,88 316.89,88 316.89,82 310.89,76 304.89,76 304.89,76 207.11,76 207.11,76 201.11,76 195.11,82 195.11,88 195.11,88 195.11,182 195.11,182 195.11,188 201.11,194 207.11,194"/>
<text text-anchor="middle" x="256" y="91.2" font-family="Times,serif" font-size="14.00">SessionsController</text>
<polyline fill="none" stroke="black" points="195.11,98 316.89,98 "/>
<text text-anchor="start" x="203.11" y="113.2" font-family="Times,serif" font-size="14.00">create</text>
<text text-anchor="start" x="203.11" y="127.2" font-family="Times,serif" font-size="14.00">destroy</text>
<text text-anchor="start" x="203.11" y="141.2" font-family="Times,serif" font-size="14.00">new</text>
<polyline fill="none" stroke="black" points="195.11,148 316.89,148 "/>
<polyline fill="none" stroke="black" points="195.11,172 316.89,172 "/>
<text text-anchor="start" x="203.11" y="187.2" font-family="Times,serif" font-size="14.00">_layout</text>
</g>
<!-- UsersController -->
<g id="node7" class="node"><title>UsersController</title>
<path fill="none" stroke="black" d="M-182.714,14C-182.714,14 -101.286,14 -101.286,14 -95.2861,14 -89.2861,8 -89.2861,2 -89.2861,2 -89.2861,-92 -89.2861,-92 -89.2861,-98 -95.2861,-104 -101.286,-104 -101.286,-104 -182.714,-104 -182.714,-104 -188.714,-104 -194.714,-98 -194.714,-92 -194.714,-92 -194.714,2 -194.714,2 -194.714,8 -188.714,14 -182.714,14"/>
<text text-anchor="middle" x="-142" y="-88.8" font-family="Times,serif" font-size="14.00">UsersController</text>
<polyline fill="none" stroke="black" points="-194.714,-82 -89.2861,-82 "/>
<text text-anchor="start" x="-186.714" y="-66.8" font-family="Times,serif" font-size="14.00">create</text>
<text text-anchor="start" x="-186.714" y="-52.8" font-family="Times,serif" font-size="14.00">new</text>
<polyline fill="none" stroke="black" points="-194.714,-46 -89.2861,-46 "/>
<polyline fill="none" stroke="black" points="-194.714,-22 -89.2861,-22 "/>
<text text-anchor="start" x="-186.714" y="-6.8" font-family="Times,serif" font-size="14.00">_layout</text>
<text text-anchor="start" x="-186.714" y="7.2" font-family="Times,serif" font-size="14.00">user_params</text>
</g>
</g>
</svg>
