<?xml version="1.0" encoding="UTF-8" standalone="no"?>
<!DOCTYPE svg PUBLIC "-//W3C//DTD SVG 1.1//EN"
 "http://www.w3.org/Graphics/SVG/1.1/DTD/svg11.dtd">
<!-- Generated by graphviz version 2.38.0 (20140413.2041)
 -->
<!-- Title: models_diagram Pages: 1 -->
<svg width="698pt" height="439pt"
 viewBox="0.00 0.00 698.33 439.00" xmlns="http://www.w3.org/2000/svg" xmlns:xlink="http://www.w3.org/1999/xlink">
<g id="graph0" class="graph" transform="scale(1 1) rotate(0) translate(4 435)">
<title>models_diagram</title>
<polygon fill="none" stroke="none" points="-4,4 -4,-435 694.329,-435 694.329,4 -4,4"/>
<!-- _diagram_info -->
<g id="node1" class="node"><title>_diagram_info</title>
<text text-anchor="start" x="8" y="-367.6" font-family="Times,serif" font-size="13.00">Models diagram</text>
<text text-anchor="start" x="8" y="-354.6" font-family="Times,serif" font-size="13.00">Date: Apr 08 2017 &#45; 19:09</text>
<text text-anchor="start" x="8" y="-341.6" font-family="Times,serif" font-size="13.00">Migration version: 5</text>
<text text-anchor="start" x="8" y="-328.6" font-family="Times,serif" font-size="13.00">Generated by RailRoady 1.5.1</text>
<text text-anchor="start" x="8" y="-315.6" font-family="Times,serif" font-size="13.00">http://railroady.prestonlee.com</text>
</g>
<!-- ApplicationRecord -->
<g id="node2" class="node"><title>ApplicationRecord</title>
<ellipse fill="none" stroke="black" cx="270.72" cy="-345.5" rx="77.2916" ry="18"/>
<text text-anchor="middle" x="270.72" y="-341.3" font-family="Times,serif" font-size="14.00">ApplicationRecord</text>
</g>
<!-- Bus -->
<g id="node3" class="node"><title>Bus</title>
<path fill="none" stroke="black" d="M378.504,-295.5C378.504,-295.5 492.936,-295.5 492.936,-295.5 498.936,-295.5 504.936,-301.5 504.936,-307.5 504.936,-307.5 504.936,-383.5 504.936,-383.5 504.936,-389.5 498.936,-395.5 492.936,-395.5 492.936,-395.5 378.504,-395.5 378.504,-395.5 372.504,-395.5 366.504,-389.5 366.504,-383.5 366.504,-383.5 366.504,-307.5 366.504,-307.5 366.504,-301.5 372.504,-295.5 378.504,-295.5"/>
<text text-anchor="middle" x="435.72" y="-380.3" font-family="Times,serif" font-size="14.00">Bus</text>
<polyline fill="none" stroke="black" points="366.504,-373.5 504.936,-373.5 "/>
<text text-anchor="start" x="374.504" y="-358.3" font-family="Times,serif" font-size="14.00">id :INTEGER</text>
<text text-anchor="start" x="374.504" y="-344.3" font-family="Times,serif" font-size="14.00">license_plate :varchar</text>
<text text-anchor="start" x="374.504" y="-330.3" font-family="Times,serif" font-size="14.00">fleet_id :integer</text>
<text text-anchor="start" x="374.504" y="-316.3" font-family="Times,serif" font-size="14.00">created_at :datetime</text>
<text text-anchor="start" x="374.504" y="-302.3" font-family="Times,serif" font-size="14.00">updated_at :datetime</text>
</g>
<!-- Fleet -->
<g id="node5" class="node"><title>Fleet</title>
<path fill="none" stroke="black" d="M381.215,-123.5C381.215,-123.5 490.226,-123.5 490.226,-123.5 496.226,-123.5 502.226,-129.5 502.226,-135.5 502.226,-135.5 502.226,-211.5 502.226,-211.5 502.226,-217.5 496.226,-223.5 490.226,-223.5 490.226,-223.5 381.215,-223.5 381.215,-223.5 375.215,-223.5 369.215,-217.5 369.215,-211.5 369.215,-211.5 369.215,-135.5 369.215,-135.5 369.215,-129.5 375.215,-123.5 381.215,-123.5"/>
<text text-anchor="middle" x="435.72" y="-208.3" font-family="Times,serif" font-size="14.00">Fleet</text>
<polyline fill="none" stroke="black" points="369.215,-201.5 502.226,-201.5 "/>
<text text-anchor="start" x="377.215" y="-186.3" font-family="Times,serif" font-size="14.00">id :INTEGER</text>
<text text-anchor="start" x="377.215" y="-172.3" font-family="Times,serif" font-size="14.00">name :varchar</text>
<text text-anchor="start" x="377.215" y="-158.3" font-family="Times,serif" font-size="14.00">city_id :integer</text>
<text text-anchor="start" x="377.215" y="-144.3" font-family="Times,serif" font-size="14.00">created_at :datetime</text>
<text text-anchor="start" x="377.215" y="-130.3" font-family="Times,serif" font-size="14.00">updated_at :datetime</text>
</g>
<!-- Bus&#45;&gt;Fleet -->
<g id="edge1" class="edge"><title>Bus&#45;&gt;Fleet</title>
<path fill="none" stroke="#f7b54c" d="M429.3,-287.243C428.859,-269.324 428.86,-249.558 429.303,-231.646"/>
<ellipse fill="none" stroke="#f7b54c" cx="429.419" cy="-291.331" rx="4" ry="4"/>
<ellipse fill="#f7b54c" stroke="#f7b54c" cx="429.422" cy="-227.559" rx="4" ry="4"/>
</g>
<!-- City -->
<g id="node4" class="node"><title>City</title>
<path fill="none" stroke="black" d="M381.215,-0.5C381.215,-0.5 490.226,-0.5 490.226,-0.5 496.226,-0.5 502.226,-6.5 502.226,-12.5 502.226,-12.5 502.226,-74.5 502.226,-74.5 502.226,-80.5 496.226,-86.5 490.226,-86.5 490.226,-86.5 381.215,-86.5 381.215,-86.5 375.215,-86.5 369.215,-80.5 369.215,-74.5 369.215,-74.5 369.215,-12.5 369.215,-12.5 369.215,-6.5 375.215,-0.5 381.215,-0.5"/>
<text text-anchor="middle" x="435.72" y="-71.3" font-family="Times,serif" font-size="14.00">City</text>
<polyline fill="none" stroke="black" points="369.215,-64.5 502.226,-64.5 "/>
<text text-anchor="start" x="377.215" y="-49.3" font-family="Times,serif" font-size="14.00">code :INTEGER</text>
<text text-anchor="start" x="377.215" y="-35.3" font-family="Times,serif" font-size="14.00">name :varchar</text>
<text text-anchor="start" x="377.215" y="-21.3" font-family="Times,serif" font-size="14.00">created_at :datetime</text>
<text text-anchor="start" x="377.215" y="-7.3" font-family="Times,serif" font-size="14.00">updated_at :datetime</text>
</g>
<!-- City&#45;&gt;Fleet -->
<g id="edge2" class="edge"><title>City&#45;&gt;Fleet</title>
<path fill="none" stroke="#282830" d="M442.33,-94.773C442.456,-100.853 442.497,-107.107 442.453,-113.3"/>
<ellipse fill="none" stroke="#282830" cx="442.216" cy="-90.6099" rx="4" ry="4"/>
<polygon fill="#282830" stroke="#282830" points="442.452,-113.379 437.806,-123.312 442.379,-118.378 442.305,-123.378 442.305,-123.378 442.305,-123.378 442.379,-118.378 446.805,-123.444 442.452,-113.379 442.452,-113.379"/>
</g>
<!-- Fleet&#45;&gt;Bus -->
<g id="edge4" class="edge"><title>Fleet&#45;&gt;Bus</title>
<path fill="none" stroke="#840764" d="M442.142,-231.861C442.565,-249.075 442.579,-267.987 442.186,-285.316"/>
<ellipse fill="none" stroke="#840764" cx="442.018" cy="-227.559" rx="4" ry="4"/>
<polygon fill="#840764" stroke="#840764" points="442.185,-285.333 437.408,-295.203 442.046,-290.331 441.906,-295.329 441.906,-295.329 441.906,-295.329 442.046,-290.331 446.404,-295.454 442.185,-285.333 442.185,-285.333"/>
</g>
<!-- Fleet&#45;&gt;City -->
<g id="edge3" class="edge"><title>Fleet&#45;&gt;City</title>
<path fill="none" stroke="#d282be" d="M429.005,-115.331C428.936,-108.538 428.97,-101.641 429.106,-94.9513"/>
<ellipse fill="none" stroke="#d282be" cx="429.07" cy="-119.378" rx="4" ry="4"/>
<ellipse fill="#d282be" stroke="#d282be" cx="429.225" cy="-90.61" rx="4" ry="4"/>
</g>
<!-- User -->
<g id="node6" class="node"><title>User</title>
<path fill="none" stroke="black" d="M535.111,-260.5C535.111,-260.5 678.329,-260.5 678.329,-260.5 684.329,-260.5 690.329,-266.5 690.329,-272.5 690.329,-272.5 690.329,-418.5 690.329,-418.5 690.329,-424.5 684.329,-430.5 678.329,-430.5 678.329,-430.5 535.111,-430.5 535.111,-430.5 529.111,-430.5 523.111,-424.5 523.111,-418.5 523.111,-418.5 523.111,-272.5 523.111,-272.5 523.111,-266.5 529.111,-260.5 535.111,-260.5"/>
<text text-anchor="middle" x="606.72" y="-415.3" font-family="Times,serif" font-size="14.00">User</text>
<polyline fill="none" stroke="black" points="523.111,-408.5 690.329,-408.5 "/>
<text text-anchor="start" x="531.111" y="-393.3" font-family="Times,serif" font-size="14.00">role :integer</text>
<text text-anchor="start" x="531.111" y="-379.3" font-family="Times,serif" font-size="14.00">email :varchar</text>
<text text-anchor="start" x="531.111" y="-365.3" font-family="Times,serif" font-size="14.00">crypted_password :varchar</text>
<text text-anchor="start" x="531.111" y="-351.3" font-family="Times,serif" font-size="14.00">salt :varchar</text>
<text text-anchor="start" x="531.111" y="-337.3" font-family="Times,serif" font-size="14.00">first_name :varchar</text>
<text text-anchor="start" x="531.111" y="-323.3" font-family="Times,serif" font-size="14.00">last_name :varchar</text>
<text text-anchor="start" x="531.111" y="-309.3" font-family="Times,serif" font-size="14.00">created_at :datetime</text>
<text text-anchor="start" x="531.111" y="-295.3" font-family="Times,serif" font-size="14.00">updated_at :datetime</text>
<text text-anchor="start" x="531.111" y="-281.3" font-family="Times,serif" font-size="14.00">document :varchar</text>
<text text-anchor="start" x="531.111" y="-267.3" font-family="Times,serif" font-size="14.00">id :INTEGER</text>
</g>
</g>
</svg>
