<?xml version="1.0" encoding="UTF-8" standalone="no"?>
<!DOCTYPE svg PUBLIC "-//W3C//DTD SVG 1.1//EN"
 "http://www.w3.org/Graphics/SVG/1.1/DTD/svg11.dtd">
<!-- Generated by graphviz version 2.38.0 (20140413.2041)
 -->
<!-- Title: models_diagram Pages: 1 -->
<svg width="541pt" height="297pt"
 viewBox="0.00 0.00 540.72 297.00" xmlns="http://www.w3.org/2000/svg" xmlns:xlink="http://www.w3.org/1999/xlink">
<g id="graph0" class="graph" transform="scale(1 1) rotate(0) translate(4 293)">
<title>models_diagram</title>
<polygon fill="none" stroke="none" points="-4,4 -4,-293 536.72,-293 536.72,4 -4,4"/>
<!-- _diagram_info -->
<g id="node1" class="node"><title>_diagram_info</title>
<text text-anchor="start" x="8" y="-274.6" font-family="Times,serif" font-size="13.00">Models diagram</text>
<text text-anchor="start" x="8" y="-261.6" font-family="Times,serif" font-size="13.00">Date: Apr 08 2017 &#45; 20:28</text>
<text text-anchor="start" x="8" y="-248.6" font-family="Times,serif" font-size="13.00">Migration version: 7</text>
<text text-anchor="start" x="8" y="-235.6" font-family="Times,serif" font-size="13.00">Generated by RailRoady 1.5.1</text>
<text text-anchor="start" x="8" y="-222.6" font-family="Times,serif" font-size="13.00">http://railroady.prestonlee.com</text>
</g>
<!-- ApplicationRecord -->
<g id="node2" class="node"><title>ApplicationRecord</title>
<ellipse fill="none" stroke="black" cx="270.72" cy="-252.5" rx="77.2916" ry="18"/>
<text text-anchor="middle" x="270.72" y="-248.3" font-family="Times,serif" font-size="14.00">ApplicationRecord</text>
</g>
<!-- Bus -->
<g id="node3" class="node"><title>Bus</title>
<ellipse fill="none" stroke="black" cx="137.72" cy="-162" rx="27" ry="18"/>
<text text-anchor="middle" x="137.72" y="-157.8" font-family="Times,serif" font-size="14.00">Bus</text>
</g>
<!-- ApplicationRecord&#45;&gt;Bus -->
<g id="edge2" class="edge"><title>ApplicationRecord&#45;&gt;Bus</title>
<path fill="none" stroke="black" d="M246.326,-235.268C220.379,-218.002 179.903,-191.069 156.384,-175.419"/>
</g>
<!-- City -->
<g id="node4" class="node"><title>City</title>
<ellipse fill="none" stroke="black" cx="155.72" cy="-18" rx="27" ry="18"/>
<text text-anchor="middle" x="155.72" y="-13.8" font-family="Times,serif" font-size="14.00">City</text>
</g>
<!-- ApplicationRecord&#45;&gt;City -->
<g id="edge4" class="edge"><title>ApplicationRecord&#45;&gt;City</title>
<path fill="none" stroke="black" d="M264.594,-234.385C252.656,-201.82 224.633,-129.094 192.72,-72 185.274,-58.6782 175.297,-44.5528 167.58,-34.2374"/>
</g>
<!-- Fleet -->
<g id="node5" class="node"><title>Fleet</title>
<ellipse fill="none" stroke="black" cx="155.72" cy="-90" rx="27.5804" ry="18"/>
<text text-anchor="middle" x="155.72" y="-85.8" font-family="Times,serif" font-size="14.00">Fleet</text>
</g>
<!-- ApplicationRecord&#45;&gt;Fleet -->
<g id="edge7" class="edge"><title>ApplicationRecord&#45;&gt;Fleet</title>
<path fill="none" stroke="black" d="M257.623,-234.617C246.548,-220.231 230.351,-198.938 216.72,-180 198.555,-154.762 178.299,-124.832 166.302,-106.908"/>
</g>
<!-- OrderStatus -->
<g id="node6" class="node"><title>OrderStatus</title>
<ellipse fill="none" stroke="black" cx="310.72" cy="-162" rx="52.202" ry="18"/>
<text text-anchor="middle" x="310.72" y="-157.8" font-family="Times,serif" font-size="14.00">OrderStatus</text>
</g>
<!-- ApplicationRecord&#45;&gt;OrderStatus -->
<g id="edge8" class="edge"><title>ApplicationRecord&#45;&gt;OrderStatus</title>
<path fill="none" stroke="black" d="M278.433,-234.436C285.516,-218.765 295.956,-195.666 303.031,-180.011"/>
</g>
<!-- Package -->
<g id="node7" class="node"><title>Package</title>
<ellipse fill="none" stroke="black" cx="420.72" cy="-162" rx="39.6385" ry="18"/>
<text text-anchor="middle" x="420.72" y="-157.8" font-family="Times,serif" font-size="14.00">Package</text>
</g>
<!-- ApplicationRecord&#45;&gt;Package -->
<g id="edge9" class="edge"><title>ApplicationRecord&#45;&gt;Package</title>
<path fill="none" stroke="black" d="M297.884,-235.473C326.251,-218.737 370.287,-192.755 397.211,-176.871"/>
</g>
<!-- User -->
<g id="node8" class="node"><title>User</title>
<ellipse fill="none" stroke="black" cx="505.72" cy="-162" rx="27" ry="18"/>
<text text-anchor="middle" x="505.72" y="-157.8" font-family="Times,serif" font-size="14.00">User</text>
</g>
<!-- ApplicationRecord&#45;&gt;User -->
<g id="edge10" class="edge"><title>ApplicationRecord&#45;&gt;User</title>
<path fill="none" stroke="black" d="M313.486,-237.465C354.095,-223.827 416.649,-202.005 469.72,-180 474.573,-177.988 479.717,-175.672 484.552,-173.411"/>
</g>
<!-- Bus&#45;&gt;Fleet -->
<g id="edge1" class="edge"><title>Bus&#45;&gt;Fleet</title>
<path fill="none" stroke="#06cae6" d="M137.716,-135.677C139.105,-128.985 140.978,-121.78 143.057,-115.151"/>
<ellipse fill="none" stroke="#06cae6" cx="136.972" cy="-139.762" rx="4.00001" ry="4.00001"/>
<ellipse fill="#06cae6" stroke="#06cae6" cx="144.491" cy="-110.932" rx="4.00001" ry="4.00001"/>
</g>
<!-- City&#45;&gt;Fleet -->
<g id="edge3" class="edge"><title>City&#45;&gt;Fleet</title>
<path fill="none" stroke="#7db31c" d="M162.215,-43.9262C162.517,-49.7349 162.551,-55.9482 162.317,-61.8479"/>
<ellipse fill="none" stroke="#7db31c" cx="161.892" cy="-39.7769" rx="4" ry="4"/>
<polygon fill="#7db31c" stroke="#7db31c" points="162.301,-62.0796 157.11,-71.7389 161.95,-67.0673 161.598,-72.055 161.598,-72.055 161.598,-72.055 161.95,-67.0673 166.087,-72.371 162.301,-62.0796 162.301,-62.0796"/>
</g>
<!-- Fleet&#45;&gt;Bus -->
<g id="edge6" class="edge"><title>Fleet&#45;&gt;Bus</title>
<path fill="none" stroke="#76ae67" d="M155.708,-116.398C154.419,-122.6 152.715,-129.237 150.818,-135.446"/>
<ellipse fill="none" stroke="#76ae67" cx="156.47" cy="-112.227" rx="4.00001" ry="4.00001"/>
<polygon fill="#76ae67" stroke="#76ae67" points="150.753,-135.638 143.3,-143.681 149.159,-140.377 147.566,-145.116 147.566,-145.116 147.566,-145.116 149.159,-140.377 151.831,-146.55 150.753,-135.638 150.753,-135.638"/>
</g>
<!-- Fleet&#45;&gt;City -->
<g id="edge5" class="edge"><title>Fleet&#45;&gt;City</title>
<path fill="none" stroke="#8c6398" d="M149.214,-63.8609C148.889,-57.4491 148.889,-50.5566 149.214,-44.1446"/>
<ellipse fill="none" stroke="#8c6398" cx="149.536" cy="-68.0666" rx="4" ry="4"/>
<ellipse fill="#8c6398" stroke="#8c6398" cx="149.551" cy="-39.7771" rx="4" ry="4"/>
</g>
</g>
</svg>
