<?xml version="1.0" encoding="UTF-8" standalone="no"?>
<!DOCTYPE svg PUBLIC "-//W3C//DTD SVG 1.1//EN"
 "http://www.w3.org/Graphics/SVG/1.1/DTD/svg11.dtd">
<!-- Generated by graphviz version 2.38.0 (20140413.2041)
 -->
<!-- Title: models_diagram Pages: 1 -->
<svg width="500pt" height="225pt"
 viewBox="0.00 0.00 499.72 225.00" xmlns="http://www.w3.org/2000/svg" xmlns:xlink="http://www.w3.org/1999/xlink">
<g id="graph0" class="graph" transform="scale(1 1) rotate(0) translate(4 221)">
<title>models_diagram</title>
<polygon fill="none" stroke="none" points="-4,4 -4,-221 495.72,-221 495.72,4 -4,4"/>
<!-- _diagram_info -->
<g id="node1" class="node"><title>_diagram_info</title>
<text text-anchor="start" x="8" y="-202.6" font-family="Times,serif" font-size="13.00">Models diagram</text>
<text text-anchor="start" x="8" y="-189.6" font-family="Times,serif" font-size="13.00">Date: Apr 08 2017 &#45; 19:09</text>
<text text-anchor="start" x="8" y="-176.6" font-family="Times,serif" font-size="13.00">Migration version: 5</text>
<text text-anchor="start" x="8" y="-163.6" font-family="Times,serif" font-size="13.00">Generated by RailRoady 1.5.1</text>
<text text-anchor="start" x="8" y="-150.6" font-family="Times,serif" font-size="13.00">http://railroady.prestonlee.com</text>
</g>
<!-- ApplicationRecord -->
<g id="node2" class="node"><title>ApplicationRecord</title>
<ellipse fill="none" stroke="black" cx="270.72" cy="-180.5" rx="77.2916" ry="18"/>
<text text-anchor="middle" x="270.72" y="-176.3" font-family="Times,serif" font-size="14.00">ApplicationRecord</text>
</g>
<!-- Bus -->
<g id="node3" class="node"><title>Bus</title>
<ellipse fill="none" stroke="black" cx="392.72" cy="-180.5" rx="27" ry="18"/>
<text text-anchor="middle" x="392.72" y="-176.3" font-family="Times,serif" font-size="14.00">Bus</text>
</g>
<!-- Fleet -->
<g id="node5" class="node"><title>Fleet</title>
<ellipse fill="none" stroke="black" cx="392.72" cy="-90" rx="27.5804" ry="18"/>
<text text-anchor="middle" x="392.72" y="-85.8" font-family="Times,serif" font-size="14.00">Fleet</text>
</g>
<!-- Bus&#45;&gt;Fleet -->
<g id="edge1" class="edge"><title>Bus&#45;&gt;Fleet</title>
<path fill="none" stroke="#601661" d="M386.577,-154.558C385.773,-142.553 385.768,-128.189 386.563,-116.156"/>
<ellipse fill="none" stroke="#601661" cx="386.957" cy="-158.869" rx="4" ry="4"/>
<ellipse fill="#601661" stroke="#601661" cx="386.937" cy="-111.857" rx="4" ry="4"/>
</g>
<!-- City -->
<g id="node4" class="node"><title>City</title>
<ellipse fill="none" stroke="black" cx="392.72" cy="-18" rx="27" ry="18"/>
<text text-anchor="middle" x="392.72" y="-13.8" font-family="Times,serif" font-size="14.00">City</text>
</g>
<!-- City&#45;&gt;Fleet -->
<g id="edge2" class="edge"><title>City&#45;&gt;Fleet</title>
<path fill="none" stroke="#412b8e" d="M399.215,-43.9262C399.517,-49.7349 399.551,-55.9482 399.317,-61.8479"/>
<ellipse fill="none" stroke="#412b8e" cx="398.892" cy="-39.7769" rx="4" ry="4"/>
<polygon fill="#412b8e" stroke="#412b8e" points="399.301,-62.0796 394.11,-71.7389 398.95,-67.0673 398.598,-72.055 398.598,-72.055 398.598,-72.055 398.95,-67.0673 403.087,-72.371 399.301,-62.0796 399.301,-62.0796"/>
</g>
<!-- Fleet&#45;&gt;Bus -->
<g id="edge4" class="edge"><title>Fleet&#45;&gt;Bus</title>
<path fill="none" stroke="#23b684" d="M398.878,-116.165C399.636,-127.638 399.666,-141.227 398.97,-152.87"/>
<ellipse fill="none" stroke="#23b684" cx="398.504" cy="-111.857" rx="4" ry="4"/>
<polygon fill="#23b684" stroke="#23b684" points="398.969,-152.889 393.647,-162.477 398.55,-157.871 398.132,-162.854 398.132,-162.854 398.132,-162.854 398.55,-157.871 402.616,-163.23 398.969,-152.889 398.969,-152.889"/>
</g>
<!-- Fleet&#45;&gt;City -->
<g id="edge3" class="edge"><title>Fleet&#45;&gt;City</title>
<path fill="none" stroke="#19b778" d="M386.214,-63.8609C385.889,-57.4491 385.889,-50.5566 386.214,-44.1446"/>
<ellipse fill="none" stroke="#19b778" cx="386.536" cy="-68.0666" rx="4" ry="4"/>
<ellipse fill="#19b778" stroke="#19b778" cx="386.551" cy="-39.7771" rx="4" ry="4"/>
</g>
<!-- User -->
<g id="node6" class="node"><title>User</title>
<ellipse fill="none" stroke="black" cx="464.72" cy="-180.5" rx="27" ry="18"/>
<text text-anchor="middle" x="464.72" y="-176.3" font-family="Times,serif" font-size="14.00">User</text>
</g>
</g>
</svg>
