<?xml version="1.0" encoding="UTF-8" standalone="no"?>
<!DOCTYPE svg PUBLIC "-//W3C//DTD SVG 1.1//EN"
 "http://www.w3.org/Graphics/SVG/1.1/DTD/svg11.dtd">
<!-- Generated by graphviz version 2.38.0 (20140413.2041)
 -->
<!-- Title: models_diagram Pages: 1 -->
<svg width="521pt" height="443pt"
 viewBox="0.00 0.00 520.72 443.00" xmlns="http://www.w3.org/2000/svg" xmlns:xlink="http://www.w3.org/1999/xlink">
<g id="graph0" class="graph" transform="scale(1 1) rotate(0) translate(4 439)">
<title>models_diagram</title>
<polygon fill="none" stroke="none" points="-4,4 -4,-439 516.72,-439 516.72,4 -4,4"/>
<!-- _diagram_info -->
<g id="node1" class="node"><title>_diagram_info</title>
<text text-anchor="start" x="8" y="-420.6" font-family="Times,serif" font-size="13.00">Models diagram</text>
<text text-anchor="start" x="8" y="-407.6" font-family="Times,serif" font-size="13.00">Date: Apr 09 2017 &#45; 20:25</text>
<text text-anchor="start" x="8" y="-394.6" font-family="Times,serif" font-size="13.00">Migration version: 9</text>
<text text-anchor="start" x="8" y="-381.6" font-family="Times,serif" font-size="13.00">Generated by RailRoady 1.5.1</text>
<text text-anchor="start" x="8" y="-368.6" font-family="Times,serif" font-size="13.00">http://railroady.prestonlee.com</text>
</g>
<!-- ApplicationRecord -->
<g id="node2" class="node"><title>ApplicationRecord</title>
<ellipse fill="none" stroke="black" cx="270.72" cy="-398.5" rx="77.2916" ry="18"/>
<text text-anchor="middle" x="270.72" y="-394.3" font-family="Times,serif" font-size="14.00">ApplicationRecord</text>
</g>
<!-- Bus -->
<g id="node3" class="node"><title>Bus</title>
<ellipse fill="none" stroke="black" cx="220.72" cy="-91" rx="27" ry="18"/>
<text text-anchor="middle" x="220.72" y="-86.8" font-family="Times,serif" font-size="14.00">Bus</text>
</g>
<!-- ApplicationRecord&#45;&gt;Bus -->
<g id="edge2" class="edge"><title>ApplicationRecord&#45;&gt;Bus</title>
<path fill="none" stroke="black" d="M263.284,-380.512C249.949,-349.016 222.454,-279.109 212.72,-217 210.243,-201.193 212.003,-196.984 212.72,-181 213.846,-155.893 216.751,-126.922 218.732,-109.031"/>
</g>
<!-- City -->
<g id="node4" class="node"><title>City</title>
<ellipse fill="none" stroke="black" cx="305.72" cy="-307" rx="27" ry="18"/>
<text text-anchor="middle" x="305.72" y="-302.8" font-family="Times,serif" font-size="14.00">City</text>
</g>
<!-- ApplicationRecord&#45;&gt;City -->
<g id="edge6" class="edge"><title>ApplicationRecord&#45;&gt;City</title>
<path fill="none" stroke="black" d="M277.469,-380.243C283.746,-364.192 293.036,-340.435 299.229,-324.598"/>
</g>
<!-- Fleet -->
<g id="node5" class="node"><title>Fleet</title>
<ellipse fill="none" stroke="black" cx="249.72" cy="-199" rx="27.5804" ry="18"/>
<text text-anchor="middle" x="249.72" y="-194.8" font-family="Times,serif" font-size="14.00">Fleet</text>
</g>
<!-- ApplicationRecord&#45;&gt;Fleet -->
<g id="edge8" class="edge"><title>ApplicationRecord&#45;&gt;Fleet</title>
<path fill="none" stroke="black" d="M268.893,-380.319C264.912,-342.873 255.492,-254.282 251.528,-217.001"/>
</g>
<!-- OrderStatus -->
<g id="node6" class="node"><title>OrderStatus</title>
<ellipse fill="none" stroke="black" cx="417.72" cy="-253" rx="52.202" ry="18"/>
<text text-anchor="middle" x="417.72" y="-248.8" font-family="Times,serif" font-size="14.00">OrderStatus</text>
</g>
<!-- ApplicationRecord&#45;&gt;OrderStatus -->
<g id="edge10" class="edge"><title>ApplicationRecord&#45;&gt;OrderStatus</title>
<path fill="none" stroke="black" d="M287.871,-380.758C316.348,-352.959 373.028,-297.628 401.13,-270.195"/>
</g>
<!-- Package -->
<g id="node7" class="node"><title>Package</title>
<ellipse fill="none" stroke="black" cx="312.72" cy="-18" rx="39.6385" ry="18"/>
<text text-anchor="middle" x="312.72" y="-13.8" font-family="Times,serif" font-size="14.00">Package</text>
</g>
<!-- ApplicationRecord&#45;&gt;Package -->
<g id="edge11" class="edge"><title>ApplicationRecord&#45;&gt;Package</title>
<path fill="none" stroke="black" d="M227.571,-383.556C194.94,-369.992 155.72,-345.822 155.72,-308 155.72,-308 155.72,-308 155.72,-90 155.72,-38.547 226.593,-24.1834 273.102,-20.2971"/>
</g>
<!-- User -->
<g id="node8" class="node"><title>User</title>
<ellipse fill="none" stroke="black" cx="485.72" cy="-145" rx="27" ry="18"/>
<text text-anchor="middle" x="485.72" y="-140.8" font-family="Times,serif" font-size="14.00">User</text>
</g>
<!-- ApplicationRecord&#45;&gt;User -->
<g id="edge13" class="edge"><title>ApplicationRecord&#45;&gt;User</title>
<path fill="none" stroke="black" d="M313.151,-383.299C360.143,-365.172 434.093,-329.017 470.72,-271 491.839,-237.547 490.593,-188.912 488.05,-163.286"/>
</g>
<!-- Bus&#45;&gt;Package -->
<g id="edge1" class="edge"><title>Bus&#45;&gt;Package</title>
<path fill="none" stroke="#ab6c53" d="M241.909,-70.5422C248.161,-65.0371 255.103,-59.1465 261.72,-54 268.277,-48.9011 275.526,-43.6884 282.452,-38.8961"/>
<ellipse fill="none" stroke="#ab6c53" cx="238.911" cy="-73.215" rx="4.00002" ry="4.00002"/>
<polygon fill="#ab6c53" stroke="#ab6c53" points="282.71,-38.7204 293.509,-36.8102 286.843,-35.9057 290.975,-33.091 290.975,-33.091 290.975,-33.091 286.843,-35.9057 288.442,-29.3717 282.71,-38.7204 282.71,-38.7204"/>
</g>
<!-- City&#45;&gt;Fleet -->
<g id="edge3" class="edge"><title>City&#45;&gt;Fleet</title>
<path fill="none" stroke="#f4662b" d="M293.378,-282.638C284.074,-265.027 271.37,-240.981 262.065,-223.368"/>
<ellipse fill="none" stroke="#f4662b" cx="295.347" cy="-286.364" rx="4.00002" ry="4.00002"/>
<ellipse fill="#f4662b" stroke="#f4662b" cx="260.174" cy="-219.787" rx="4.00002" ry="4.00002"/>
</g>
<!-- City&#45;&gt;Package -->
<g id="edge4" class="edge"><title>City&#45;&gt;Package</title>
<path fill="none" stroke="#d1be2a" d="M304.62,-280.832C302.872,-255.112 298.358,-214.328 286.72,-181 283.679,-172.292 278.765,-171.913 276.389,-163 272.268,-147.54 273.804,-142.79 276.389,-127 281.107,-98.1804 292.464,-66.6861 301.235,-45.1848"/>
<ellipse fill="none" stroke="#d1be2a" cx="304.87" cy="-284.952" rx="4" ry="4"/>
<polygon fill="#d1be2a" stroke="#d1be2a" points="301.314,-44.9975 309.323,-37.5075 303.243,-40.3845 305.171,-35.7715 305.171,-35.7715 305.171,-35.7715 303.243,-40.3845 301.02,-34.0356 301.314,-44.9975 301.314,-44.9975"/>
<text text-anchor="middle" x="302.386" y="-140.8" font-family="Times,serif" font-size="14.00">origin_id</text>
</g>
<!-- City&#45;&gt;Package -->
<g id="edge5" class="edge"><title>City&#45;&gt;Package</title>
<path fill="none" stroke="#b7d634" d="M313.341,-281.269C314.235,-277.841 315.061,-274.348 315.72,-271 328.131,-207.989 332.148,-191.069 327.72,-127 325.811,-99.3741 321.186,-68.0555 317.572,-46.2851"/>
<ellipse fill="none" stroke="#b7d634" cx="312.252" cy="-285.195" rx="4.00001" ry="4.00001"/>
<polygon fill="#b7d634" stroke="#b7d634" points="317.522,-45.9906 320.281,-35.3775 316.683,-41.0614 315.845,-36.1322 315.845,-36.1322 315.845,-36.1322 316.683,-41.0614 311.409,-36.8869 317.522,-45.9906 317.522,-45.9906"/>
<text text-anchor="middle" x="368.382" y="-140.8" font-family="Times,serif" font-size="14.00">destination_id</text>
</g>
<!-- Fleet&#45;&gt;Bus -->
<g id="edge7" class="edge"><title>Fleet&#45;&gt;Bus</title>
<path fill="none" stroke="#8a9591" d="M242.883,-173.008C238.413,-156.668 232.579,-135.346 228.019,-118.679"/>
<ellipse fill="none" stroke="#8a9591" cx="244.005" cy="-177.111" rx="4.00001" ry="4.00001"/>
<polygon fill="#8a9591" stroke="#8a9591" points="228.007,-118.634 229.708,-107.801 226.687,-113.811 225.368,-108.988 225.368,-108.988 225.368,-108.988 226.687,-113.811 221.028,-110.176 228.007,-118.634 228.007,-118.634"/>
</g>
<!-- OrderStatus&#45;&gt;Package -->
<g id="edge9" class="edge"><title>OrderStatus&#45;&gt;Package</title>
<path fill="none" stroke="#af420f" d="M426.588,-226.917C434.283,-201.016 442.373,-159.861 429.72,-127 414.327,-87.0223 374.697,-55.8693 345.813,-37.5067"/>
<ellipse fill="none" stroke="#af420f" cx="425.326" cy="-230.944" rx="4.00001" ry="4.00001"/>
<polygon fill="#af420f" stroke="#af420f" points="345.748,-37.4666 339.593,-28.3912 341.491,-34.8448 337.233,-32.2229 337.233,-32.2229 337.233,-32.2229 341.491,-34.8448 334.873,-36.0546 345.748,-37.4666 345.748,-37.4666"/>
</g>
<!-- User&#45;&gt;Package -->
<g id="edge12" class="edge"><title>User&#45;&gt;Package</title>
<path fill="none" stroke="#3e012d" d="M484.446,-118.611C482.055,-98.3332 475.48,-70.6454 457.72,-54 443.687,-40.8479 397.124,-31.1751 360.504,-25.3718"/>
<ellipse fill="none" stroke="#3e012d" cx="484.851" cy="-122.813" rx="4" ry="4"/>
<polygon fill="#3e012d" stroke="#3e012d" points="360.36,-25.3498 351.155,-19.3897 355.417,-24.5939 350.475,-23.838 350.475,-23.838 350.475,-23.838 355.417,-24.5939 349.794,-28.2862 360.36,-25.3498 360.36,-25.3498"/>
</g>
</g>
</svg>
