<?xml version="1.0" encoding="UTF-8" standalone="no"?>
<!DOCTYPE svg PUBLIC "-//W3C//DTD SVG 1.1//EN"
 "http://www.w3.org/Graphics/SVG/1.1/DTD/svg11.dtd">
<!-- Generated by graphviz version 2.38.0 (20140413.2041)
 -->
<!-- Title: models_diagram Pages: 1 -->
<svg width="669pt" height="1001pt"
 viewBox="0.00 0.00 669.33 1001.00" xmlns="http://www.w3.org/2000/svg" xmlns:xlink="http://www.w3.org/1999/xlink">
<g id="graph0" class="graph" transform="scale(1 1) rotate(0) translate(4 997)">
<title>models_diagram</title>
<polygon fill="none" stroke="none" points="-4,4 -4,-997 665.329,-997 665.329,4 -4,4"/>
<!-- _diagram_info -->
<g id="node1" class="node"><title>_diagram_info</title>
<text text-anchor="start" x="8" y="-978.6" font-family="Times,serif" font-size="13.00">Models diagram</text>
<text text-anchor="start" x="8" y="-965.6" font-family="Times,serif" font-size="13.00">Date: Apr 09 2017 &#45; 20:25</text>
<text text-anchor="start" x="8" y="-952.6" font-family="Times,serif" font-size="13.00">Migration version: 9</text>
<text text-anchor="start" x="8" y="-939.6" font-family="Times,serif" font-size="13.00">Generated by RailRoady 1.5.1</text>
<text text-anchor="start" x="8" y="-926.6" font-family="Times,serif" font-size="13.00">http://railroady.prestonlee.com</text>
</g>
<!-- ApplicationRecord -->
<g id="node2" class="node"><title>ApplicationRecord</title>
<ellipse fill="none" stroke="black" cx="270.72" cy="-956.5" rx="77.2916" ry="18"/>
<text text-anchor="middle" x="270.72" y="-952.3" font-family="Times,serif" font-size="14.00">ApplicationRecord</text>
</g>
<!-- Bus -->
<g id="node3" class="node"><title>Bus</title>
<path fill="none" stroke="black" d="M156.504,-264.5C156.504,-264.5 270.936,-264.5 270.936,-264.5 276.936,-264.5 282.936,-270.5 282.936,-276.5 282.936,-276.5 282.936,-352.5 282.936,-352.5 282.936,-358.5 276.936,-364.5 270.936,-364.5 270.936,-364.5 156.504,-364.5 156.504,-364.5 150.504,-364.5 144.504,-358.5 144.504,-352.5 144.504,-352.5 144.504,-276.5 144.504,-276.5 144.504,-270.5 150.504,-264.5 156.504,-264.5"/>
<text text-anchor="middle" x="213.72" y="-349.3" font-family="Times,serif" font-size="14.00">Bus</text>
<polyline fill="none" stroke="black" points="144.504,-342.5 282.936,-342.5 "/>
<text text-anchor="start" x="152.504" y="-327.3" font-family="Times,serif" font-size="14.00">id :INTEGER</text>
<text text-anchor="start" x="152.504" y="-313.3" font-family="Times,serif" font-size="14.00">license_plate :varchar</text>
<text text-anchor="start" x="152.504" y="-299.3" font-family="Times,serif" font-size="14.00">fleet_id :integer</text>
<text text-anchor="start" x="152.504" y="-285.3" font-family="Times,serif" font-size="14.00">created_at :datetime</text>
<text text-anchor="start" x="152.504" y="-271.3" font-family="Times,serif" font-size="14.00">updated_at :datetime</text>
</g>
<!-- ApplicationRecord&#45;&gt;Bus -->
<g id="edge2" class="edge"><title>ApplicationRecord&#45;&gt;Bus</title>
<path fill="none" stroke="black" d="M261.899,-938.599C240.056,-895.68 183.844,-778.405 164.72,-673 144.841,-563.435 176.191,-433.668 197.213,-364.575"/>
</g>
<!-- City -->
<g id="node4" class="node"><title>City</title>
<path fill="none" stroke="black" d="M281.215,-796.5C281.215,-796.5 390.226,-796.5 390.226,-796.5 396.226,-796.5 402.226,-802.5 402.226,-808.5 402.226,-808.5 402.226,-870.5 402.226,-870.5 402.226,-876.5 396.226,-882.5 390.226,-882.5 390.226,-882.5 281.215,-882.5 281.215,-882.5 275.215,-882.5 269.215,-876.5 269.215,-870.5 269.215,-870.5 269.215,-808.5 269.215,-808.5 269.215,-802.5 275.215,-796.5 281.215,-796.5"/>
<text text-anchor="middle" x="335.72" y="-867.3" font-family="Times,serif" font-size="14.00">City</text>
<polyline fill="none" stroke="black" points="269.215,-860.5 402.226,-860.5 "/>
<text text-anchor="start" x="277.215" y="-845.3" font-family="Times,serif" font-size="14.00">code :INTEGER</text>
<text text-anchor="start" x="277.215" y="-831.3" font-family="Times,serif" font-size="14.00">name :varchar</text>
<text text-anchor="start" x="277.215" y="-817.3" font-family="Times,serif" font-size="14.00">created_at :datetime</text>
<text text-anchor="start" x="277.215" y="-803.3" font-family="Times,serif" font-size="14.00">updated_at :datetime</text>
</g>
<!-- ApplicationRecord&#45;&gt;City -->
<g id="edge6" class="edge"><title>ApplicationRecord&#45;&gt;City</title>
<path fill="none" stroke="black" d="M280.311,-938.531C288.575,-923.911 300.859,-902.178 311.762,-882.888"/>
</g>
<!-- Fleet -->
<g id="node5" class="node"><title>Fleet</title>
<path fill="none" stroke="black" d="M186.215,-572.5C186.215,-572.5 295.226,-572.5 295.226,-572.5 301.226,-572.5 307.226,-578.5 307.226,-584.5 307.226,-584.5 307.226,-660.5 307.226,-660.5 307.226,-666.5 301.226,-672.5 295.226,-672.5 295.226,-672.5 186.215,-672.5 186.215,-672.5 180.215,-672.5 174.215,-666.5 174.215,-660.5 174.215,-660.5 174.215,-584.5 174.215,-584.5 174.215,-578.5 180.215,-572.5 186.215,-572.5"/>
<text text-anchor="middle" x="240.72" y="-657.3" font-family="Times,serif" font-size="14.00">Fleet</text>
<polyline fill="none" stroke="black" points="174.215,-650.5 307.226,-650.5 "/>
<text text-anchor="start" x="182.215" y="-635.3" font-family="Times,serif" font-size="14.00">id :INTEGER</text>
<text text-anchor="start" x="182.215" y="-621.3" font-family="Times,serif" font-size="14.00">name :varchar</text>
<text text-anchor="start" x="182.215" y="-607.3" font-family="Times,serif" font-size="14.00">city_id :integer</text>
<text text-anchor="start" x="182.215" y="-593.3" font-family="Times,serif" font-size="14.00">created_at :datetime</text>
<text text-anchor="start" x="182.215" y="-579.3" font-family="Times,serif" font-size="14.00">updated_at :datetime</text>
</g>
<!-- ApplicationRecord&#45;&gt;Fleet -->
<g id="edge8" class="edge"><title>ApplicationRecord&#45;&gt;Fleet</title>
<path fill="none" stroke="black" d="M267.72,-938.264C265.262,-923.606 261.851,-901.977 259.72,-883 251.528,-810.053 246.081,-725.155 243.194,-672.87"/>
</g>
<!-- OrderStatus -->
<g id="node6" class="node"><title>OrderStatus</title>
<path fill="none" stroke="black" d="M418.215,-691.5C418.215,-691.5 527.226,-691.5 527.226,-691.5 533.226,-691.5 539.226,-697.5 539.226,-703.5 539.226,-703.5 539.226,-765.5 539.226,-765.5 539.226,-771.5 533.226,-777.5 527.226,-777.5 527.226,-777.5 418.215,-777.5 418.215,-777.5 412.215,-777.5 406.215,-771.5 406.215,-765.5 406.215,-765.5 406.215,-703.5 406.215,-703.5 406.215,-697.5 412.215,-691.5 418.215,-691.5"/>
<text text-anchor="middle" x="472.72" y="-762.3" font-family="Times,serif" font-size="14.00">OrderStatus</text>
<polyline fill="none" stroke="black" points="406.215,-755.5 539.226,-755.5 "/>
<text text-anchor="start" x="414.215" y="-740.3" font-family="Times,serif" font-size="14.00">id :INTEGER</text>
<text text-anchor="start" x="414.215" y="-726.3" font-family="Times,serif" font-size="14.00">name :varchar</text>
<text text-anchor="start" x="414.215" y="-712.3" font-family="Times,serif" font-size="14.00">created_at :datetime</text>
<text text-anchor="start" x="414.215" y="-698.3" font-family="Times,serif" font-size="14.00">updated_at :datetime</text>
</g>
<!-- ApplicationRecord&#45;&gt;OrderStatus -->
<g id="edge10" class="edge"><title>ApplicationRecord&#45;&gt;OrderStatus</title>
<path fill="none" stroke="black" d="M315.588,-941.675C346.183,-930.242 385.715,-911.252 411.72,-883 439.026,-853.334 454.998,-809.743 463.699,-777.638"/>
</g>
<!-- Package -->
<g id="node7" class="node"><title>Package</title>
<path fill="none" stroke="black" d="M282.517,-0.5C282.517,-0.5 412.924,-0.5 412.924,-0.5 418.924,-0.5 424.924,-6.5 424.924,-12.5 424.924,-12.5 424.924,-214.5 424.924,-214.5 424.924,-220.5 418.924,-226.5 412.924,-226.5 412.924,-226.5 282.517,-226.5 282.517,-226.5 276.517,-226.5 270.517,-220.5 270.517,-214.5 270.517,-214.5 270.517,-12.5 270.517,-12.5 270.517,-6.5 276.517,-0.5 282.517,-0.5"/>
<text text-anchor="middle" x="347.72" y="-211.3" font-family="Times,serif" font-size="14.00">Package</text>
<polyline fill="none" stroke="black" points="270.517,-204.5 424.924,-204.5 "/>
<text text-anchor="start" x="278.517" y="-189.3" font-family="Times,serif" font-size="14.00">address :text</text>
<text text-anchor="start" x="278.517" y="-175.3" font-family="Times,serif" font-size="14.00">user_id :integer</text>
<text text-anchor="start" x="278.517" y="-161.3" font-family="Times,serif" font-size="14.00">order_status_id :integer</text>
<text text-anchor="start" x="278.517" y="-147.3" font-family="Times,serif" font-size="14.00">bus_id :integer</text>
<text text-anchor="start" x="278.517" y="-133.3" font-family="Times,serif" font-size="14.00">trackingid :varchar</text>
<text text-anchor="start" x="278.517" y="-119.3" font-family="Times,serif" font-size="14.00">latitude :decimal(10,6)</text>
<text text-anchor="start" x="278.517" y="-105.3" font-family="Times,serif" font-size="14.00">longitude :decimal(10,6)</text>
<text text-anchor="start" x="278.517" y="-91.3" font-family="Times,serif" font-size="14.00">description :text</text>
<text text-anchor="start" x="278.517" y="-77.3" font-family="Times,serif" font-size="14.00">origin_id :integer</text>
<text text-anchor="start" x="278.517" y="-63.3" font-family="Times,serif" font-size="14.00">destination_id :integer</text>
<text text-anchor="start" x="278.517" y="-49.3" font-family="Times,serif" font-size="14.00">weight :decimal</text>
<text text-anchor="start" x="278.517" y="-35.3" font-family="Times,serif" font-size="14.00">created_at :datetime</text>
<text text-anchor="start" x="278.517" y="-21.3" font-family="Times,serif" font-size="14.00">updated_at :datetime</text>
<text text-anchor="start" x="278.517" y="-7.3" font-family="Times,serif" font-size="14.00">id :INTEGER</text>
</g>
<!-- ApplicationRecord&#45;&gt;Package -->
<g id="edge11" class="edge"><title>ApplicationRecord&#45;&gt;Package</title>
<path fill="none" stroke="black" d="M237.735,-940.128C190.106,-916.845 107.72,-872.016 107.72,-840.5 107.72,-840.5 107.72,-840.5 107.72,-313.5 107.72,-227.438 200.302,-171.516 270.462,-141.493"/>
</g>
<!-- User -->
<g id="node8" class="node"><title>User</title>
<path fill="none" stroke="black" d="M506.111,-383.5C506.111,-383.5 649.329,-383.5 649.329,-383.5 655.329,-383.5 661.329,-389.5 661.329,-395.5 661.329,-395.5 661.329,-541.5 661.329,-541.5 661.329,-547.5 655.329,-553.5 649.329,-553.5 649.329,-553.5 506.111,-553.5 506.111,-553.5 500.111,-553.5 494.111,-547.5 494.111,-541.5 494.111,-541.5 494.111,-395.5 494.111,-395.5 494.111,-389.5 500.111,-383.5 506.111,-383.5"/>
<text text-anchor="middle" x="577.72" y="-538.3" font-family="Times,serif" font-size="14.00">User</text>
<polyline fill="none" stroke="black" points="494.111,-531.5 661.329,-531.5 "/>
<text text-anchor="start" x="502.111" y="-516.3" font-family="Times,serif" font-size="14.00">role :integer</text>
<text text-anchor="start" x="502.111" y="-502.3" font-family="Times,serif" font-size="14.00">email :varchar</text>
<text text-anchor="start" x="502.111" y="-488.3" font-family="Times,serif" font-size="14.00">crypted_password :varchar</text>
<text text-anchor="start" x="502.111" y="-474.3" font-family="Times,serif" font-size="14.00">salt :varchar</text>
<text text-anchor="start" x="502.111" y="-460.3" font-family="Times,serif" font-size="14.00">first_name :varchar</text>
<text text-anchor="start" x="502.111" y="-446.3" font-family="Times,serif" font-size="14.00">last_name :varchar</text>
<text text-anchor="start" x="502.111" y="-432.3" font-family="Times,serif" font-size="14.00">created_at :datetime</text>
<text text-anchor="start" x="502.111" y="-418.3" font-family="Times,serif" font-size="14.00">updated_at :datetime</text>
<text text-anchor="start" x="502.111" y="-404.3" font-family="Times,serif" font-size="14.00">document :varchar</text>
<text text-anchor="start" x="502.111" y="-390.3" font-family="Times,serif" font-size="14.00">id :INTEGER</text>
</g>
<!-- ApplicationRecord&#45;&gt;User -->
<g id="edge13" class="edge"><title>ApplicationRecord&#45;&gt;User</title>
<path fill="none" stroke="black" d="M319.228,-942.392C386.915,-921.034 506.177,-871.412 548.72,-778 580.939,-707.257 586.026,-618.086 584.344,-553.83"/>
</g>
<!-- Bus&#45;&gt;Package -->
<g id="edge1" class="edge"><title>Bus&#45;&gt;Package</title>
<path fill="none" stroke="#3a9d09" d="M251.331,-257.645C256.176,-250.45 261.276,-242.876 266.497,-235.122"/>
<ellipse fill="none" stroke="#3a9d09" cx="249.078" cy="-260.991" rx="4.00002" ry="4.00002"/>
<polygon fill="#3a9d09" stroke="#3a9d09" points="266.618,-234.942 275.936,-229.161 269.411,-230.795 272.204,-226.648 272.204,-226.648 272.204,-226.648 269.411,-230.795 268.471,-224.134 266.618,-234.942 266.618,-234.942"/>
</g>
<!-- City&#45;&gt;Fleet -->
<g id="edge3" class="edge"><title>City&#45;&gt;Fleet</title>
<path fill="none" stroke="#c5e72d" d="M313.664,-788.582C299.354,-756.198 280.674,-713.922 265.8,-680.26"/>
<ellipse fill="none" stroke="#c5e72d" cx="315.448" cy="-792.621" rx="4.00002" ry="4.00002"/>
<ellipse fill="#c5e72d" stroke="#c5e72d" cx="264.111" cy="-676.437" rx="4.00002" ry="4.00002"/>
</g>
<!-- City&#45;&gt;Package -->
<g id="edge4" class="edge"><title>City&#45;&gt;Package</title>
<path fill="none" stroke="#04a034" d="M335.368,-788.119C334.24,-734.228 330.234,-646.449 316.72,-572 315.23,-563.791 312.586,-562.257 311.389,-554 300.485,-478.786 306.282,-458.828 311.389,-383 314.628,-334.903 321.096,-282.286 327.689,-236.476"/>
<ellipse fill="none" stroke="#04a034" cx="335.444" cy="-792.145" rx="4" ry="4"/>
<polygon fill="#04a034" stroke="#04a034" points="327.7,-236.402 333.594,-227.155 328.42,-231.454 329.141,-226.506 329.141,-226.506 329.141,-226.506 328.42,-231.454 324.688,-225.858 327.7,-236.402 327.7,-236.402"/>
<text text-anchor="middle" x="337.386" y="-464.3" font-family="Times,serif" font-size="14.00">origin_id</text>
</g>
<!-- City&#45;&gt;Package -->
<g id="edge5" class="edge"><title>City&#45;&gt;Package</title>
<path fill="none" stroke="#e08164" d="M346.201,-788.238C346.764,-784.781 347.278,-781.344 347.72,-778 370.727,-603.831 367.622,-558.614 362.72,-383 361.388,-335.274 358.727,-282.831 356.01,-237.056"/>
<ellipse fill="none" stroke="#e08164" cx="345.49" cy="-792.362" rx="4.00001" ry="4.00001"/>
<polygon fill="#e08164" stroke="#e08164" points="355.993,-236.772 359.886,-226.52 355.694,-231.781 355.394,-226.79 355.394,-226.79 355.394,-226.79 355.694,-231.781 350.902,-227.059 355.993,-236.772 355.993,-236.772"/>
<text text-anchor="middle" x="406.382" y="-464.3" font-family="Times,serif" font-size="14.00">destination_id</text>
</g>
<!-- Fleet&#45;&gt;Bus -->
<g id="edge7" class="edge"><title>Fleet&#45;&gt;Bus</title>
<path fill="none" stroke="#d1bedc" d="M235.653,-564.072C230.884,-510.018 223.772,-429.418 218.95,-374.771"/>
<ellipse fill="none" stroke="#d1bedc" cx="236.031" cy="-568.351" rx="4" ry="4"/>
<polygon fill="#d1bedc" stroke="#d1bedc" points="218.926,-374.503 222.53,-364.147 218.487,-369.523 218.047,-364.542 218.047,-364.542 218.047,-364.542 218.487,-369.523 213.565,-364.938 218.926,-374.503 218.926,-374.503"/>
</g>
<!-- OrderStatus&#45;&gt;Package -->
<g id="edge9" class="edge"><title>OrderStatus&#45;&gt;Package</title>
<path fill="none" stroke="#56341d" d="M477.588,-683.245C482.89,-614.528 487.816,-487.813 464.72,-383 453.69,-332.943 433.206,-280.676 412.422,-235.701"/>
<ellipse fill="none" stroke="#56341d" cx="477.26" cy="-687.345" rx="4" ry="4"/>
<polygon fill="#56341d" stroke="#56341d" points="412.361,-235.571 412.202,-224.606 410.243,-231.041 408.125,-226.512 408.125,-226.512 408.125,-226.512 410.243,-231.041 404.049,-228.418 412.361,-235.571 412.361,-235.571"/>
</g>
<!-- User&#45;&gt;Package -->
<g id="edge12" class="edge"><title>User&#45;&gt;Package</title>
<path fill="none" stroke="#9299a5" d="M553.456,-375.653C539.706,-333.565 519.758,-284.399 492.72,-245 476.264,-221.02 454.531,-198.443 432.915,-179.027"/>
<ellipse fill="none" stroke="#9299a5" cx="554.728" cy="-379.617" rx="4.00001" ry="4.00001"/>
<polygon fill="#9299a5" stroke="#9299a5" points="432.781,-178.909 428.259,-168.919 429.032,-175.602 425.282,-172.294 425.282,-172.294 425.282,-172.294 429.032,-175.602 422.305,-175.669 432.781,-178.909 432.781,-178.909"/>
</g>
</g>
</svg>
