<?xml version="1.0" encoding="UTF-8" standalone="no"?>
<!DOCTYPE svg PUBLIC "-//W3C//DTD SVG 1.1//EN"
 "http://www.w3.org/Graphics/SVG/1.1/DTD/svg11.dtd">
<!-- Generated by graphviz version 2.38.0 (20140413.2041)
 -->
<!-- Title: models_diagram Pages: 1 -->
<svg width="762pt" height="590pt"
 viewBox="0.00 0.00 762.33 590.00" xmlns="http://www.w3.org/2000/svg" xmlns:xlink="http://www.w3.org/1999/xlink">
<g id="graph0" class="graph" transform="scale(1 1) rotate(0) translate(4 586)">
<title>models_diagram</title>
<polygon fill="none" stroke="none" points="-4,4 -4,-586 758.329,-586 758.329,4 -4,4"/>
<!-- _diagram_info -->
<g id="node1" class="node"><title>_diagram_info</title>
<text text-anchor="start" x="8" y="-567.6" font-family="Times,serif" font-size="13.00">Models diagram</text>
<text text-anchor="start" x="8" y="-554.6" font-family="Times,serif" font-size="13.00">Date: Apr 08 2017 &#45; 20:28</text>
<text text-anchor="start" x="8" y="-541.6" font-family="Times,serif" font-size="13.00">Migration version: 7</text>
<text text-anchor="start" x="8" y="-528.6" font-family="Times,serif" font-size="13.00">Generated by RailRoady 1.5.1</text>
<text text-anchor="start" x="8" y="-515.6" font-family="Times,serif" font-size="13.00">http://railroady.prestonlee.com</text>
</g>
<!-- ApplicationRecord -->
<g id="node2" class="node"><title>ApplicationRecord</title>
<ellipse fill="none" stroke="black" cx="270.72" cy="-545.5" rx="77.2916" ry="18"/>
<text text-anchor="middle" x="270.72" y="-541.3" font-family="Times,serif" font-size="14.00">ApplicationRecord</text>
</g>
<!-- Bus -->
<g id="node3" class="node"><title>Bus</title>
<path fill="none" stroke="black" d="M30.5044,-316.5C30.5044,-316.5 144.936,-316.5 144.936,-316.5 150.936,-316.5 156.936,-322.5 156.936,-328.5 156.936,-328.5 156.936,-404.5 156.936,-404.5 156.936,-410.5 150.936,-416.5 144.936,-416.5 144.936,-416.5 30.5044,-416.5 30.5044,-416.5 24.5044,-416.5 18.5044,-410.5 18.5044,-404.5 18.5044,-404.5 18.5044,-328.5 18.5044,-328.5 18.5044,-322.5 24.5044,-316.5 30.5044,-316.5"/>
<text text-anchor="middle" x="87.7202" y="-401.3" font-family="Times,serif" font-size="14.00">Bus</text>
<polyline fill="none" stroke="black" points="18.5044,-394.5 156.936,-394.5 "/>
<text text-anchor="start" x="26.5044" y="-379.3" font-family="Times,serif" font-size="14.00">id :INTEGER</text>
<text text-anchor="start" x="26.5044" y="-365.3" font-family="Times,serif" font-size="14.00">license_plate :varchar</text>
<text text-anchor="start" x="26.5044" y="-351.3" font-family="Times,serif" font-size="14.00">fleet_id :integer</text>
<text text-anchor="start" x="26.5044" y="-337.3" font-family="Times,serif" font-size="14.00">created_at :datetime</text>
<text text-anchor="start" x="26.5044" y="-323.3" font-family="Times,serif" font-size="14.00">updated_at :datetime</text>
</g>
<!-- ApplicationRecord&#45;&gt;Bus -->
<g id="edge2" class="edge"><title>ApplicationRecord&#45;&gt;Bus</title>
<path fill="none" stroke="black" d="M244.11,-528.437C223.012,-515.029 193.407,-494.67 170.72,-473 153.025,-456.098 135.882,-435.313 121.816,-416.674"/>
</g>
<!-- City -->
<g id="node4" class="node"><title>City</title>
<path fill="none" stroke="black" d="M53.2148,-0.5C53.2148,-0.5 162.226,-0.5 162.226,-0.5 168.226,-0.5 174.226,-6.5 174.226,-12.5 174.226,-12.5 174.226,-74.5 174.226,-74.5 174.226,-80.5 168.226,-86.5 162.226,-86.5 162.226,-86.5 53.2148,-86.5 53.2148,-86.5 47.2148,-86.5 41.2148,-80.5 41.2148,-74.5 41.2148,-74.5 41.2148,-12.5 41.2148,-12.5 41.2148,-6.5 47.2148,-0.5 53.2148,-0.5"/>
<text text-anchor="middle" x="107.72" y="-71.3" font-family="Times,serif" font-size="14.00">City</text>
<polyline fill="none" stroke="black" points="41.2148,-64.5 174.226,-64.5 "/>
<text text-anchor="start" x="49.2148" y="-49.3" font-family="Times,serif" font-size="14.00">code :INTEGER</text>
<text text-anchor="start" x="49.2148" y="-35.3" font-family="Times,serif" font-size="14.00">name :varchar</text>
<text text-anchor="start" x="49.2148" y="-21.3" font-family="Times,serif" font-size="14.00">created_at :datetime</text>
<text text-anchor="start" x="49.2148" y="-7.3" font-family="Times,serif" font-size="14.00">updated_at :datetime</text>
</g>
<!-- ApplicationRecord&#45;&gt;City -->
<g id="edge4" class="edge"><title>ApplicationRecord&#45;&gt;City</title>
<path fill="none" stroke="black" d="M262.595,-527.537C256.071,-513.28 247.136,-492.21 241.72,-473 198.938,-321.238 254.668,-263.813 183.72,-123 177.148,-109.956 167.654,-97.6568 157.59,-86.8346"/>
</g>
<!-- Fleet -->
<g id="node5" class="node"><title>Fleet</title>
<path fill="none" stroke="black" d="M53.2148,-123.5C53.2148,-123.5 162.226,-123.5 162.226,-123.5 168.226,-123.5 174.226,-129.5 174.226,-135.5 174.226,-135.5 174.226,-211.5 174.226,-211.5 174.226,-217.5 168.226,-223.5 162.226,-223.5 162.226,-223.5 53.2148,-223.5 53.2148,-223.5 47.2148,-223.5 41.2148,-217.5 41.2148,-211.5 41.2148,-211.5 41.2148,-135.5 41.2148,-135.5 41.2148,-129.5 47.2148,-123.5 53.2148,-123.5"/>
<text text-anchor="middle" x="107.72" y="-208.3" font-family="Times,serif" font-size="14.00">Fleet</text>
<polyline fill="none" stroke="black" points="41.2148,-201.5 174.226,-201.5 "/>
<text text-anchor="start" x="49.2148" y="-186.3" font-family="Times,serif" font-size="14.00">id :INTEGER</text>
<text text-anchor="start" x="49.2148" y="-172.3" font-family="Times,serif" font-size="14.00">name :varchar</text>
<text text-anchor="start" x="49.2148" y="-158.3" font-family="Times,serif" font-size="14.00">city_id :integer</text>
<text text-anchor="start" x="49.2148" y="-144.3" font-family="Times,serif" font-size="14.00">created_at :datetime</text>
<text text-anchor="start" x="49.2148" y="-130.3" font-family="Times,serif" font-size="14.00">updated_at :datetime</text>
</g>
<!-- ApplicationRecord&#45;&gt;Fleet -->
<g id="edge7" class="edge"><title>ApplicationRecord&#45;&gt;Fleet</title>
<path fill="none" stroke="black" d="M251.786,-527.889C237.723,-514.48 219.228,-494.381 208.72,-473 166.124,-386.325 203.118,-349.042 165.72,-260 160.511,-247.597 153.376,-235.123 145.89,-223.684"/>
</g>
<!-- OrderStatus -->
<g id="node6" class="node"><title>OrderStatus</title>
<path fill="none" stroke="black" d="M263.215,-323.5C263.215,-323.5 372.226,-323.5 372.226,-323.5 378.226,-323.5 384.226,-329.5 384.226,-335.5 384.226,-335.5 384.226,-397.5 384.226,-397.5 384.226,-403.5 378.226,-409.5 372.226,-409.5 372.226,-409.5 263.215,-409.5 263.215,-409.5 257.215,-409.5 251.215,-403.5 251.215,-397.5 251.215,-397.5 251.215,-335.5 251.215,-335.5 251.215,-329.5 257.215,-323.5 263.215,-323.5"/>
<text text-anchor="middle" x="317.72" y="-394.3" font-family="Times,serif" font-size="14.00">OrderStatus</text>
<polyline fill="none" stroke="black" points="251.215,-387.5 384.226,-387.5 "/>
<text text-anchor="start" x="259.215" y="-372.3" font-family="Times,serif" font-size="14.00">id :INTEGER</text>
<text text-anchor="start" x="259.215" y="-358.3" font-family="Times,serif" font-size="14.00">name :varchar</text>
<text text-anchor="start" x="259.215" y="-344.3" font-family="Times,serif" font-size="14.00">created_at :datetime</text>
<text text-anchor="start" x="259.215" y="-330.3" font-family="Times,serif" font-size="14.00">updated_at :datetime</text>
</g>
<!-- ApplicationRecord&#45;&gt;OrderStatus -->
<g id="edge8" class="edge"><title>ApplicationRecord&#45;&gt;OrderStatus</title>
<path fill="none" stroke="black" d="M275.227,-527.528C282.372,-500.619 296.516,-447.356 306.519,-409.683"/>
</g>
<!-- Package -->
<g id="node7" class="node"><title>Package</title>
<path fill="none" stroke="black" d="M414.692,-260.5C414.692,-260.5 556.748,-260.5 556.748,-260.5 562.748,-260.5 568.748,-266.5 568.748,-272.5 568.748,-272.5 568.748,-460.5 568.748,-460.5 568.748,-466.5 562.748,-472.5 556.748,-472.5 556.748,-472.5 414.692,-472.5 414.692,-472.5 408.692,-472.5 402.692,-466.5 402.692,-460.5 402.692,-460.5 402.692,-272.5 402.692,-272.5 402.692,-266.5 408.692,-260.5 414.692,-260.5"/>
<text text-anchor="middle" x="485.72" y="-457.3" font-family="Times,serif" font-size="14.00">Package</text>
<polyline fill="none" stroke="black" points="402.692,-450.5 568.748,-450.5 "/>
<text text-anchor="start" x="410.692" y="-435.3" font-family="Times,serif" font-size="14.00">updated_at :datetime</text>
<text text-anchor="start" x="410.692" y="-421.3" font-family="Times,serif" font-size="14.00">user_id :integer</text>
<text text-anchor="start" x="410.692" y="-407.3" font-family="Times,serif" font-size="14.00">order_status_id :integer</text>
<text text-anchor="start" x="410.692" y="-393.3" font-family="Times,serif" font-size="14.00">bus_id :integer</text>
<text text-anchor="start" x="410.692" y="-379.3" font-family="Times,serif" font-size="14.00">trackingid :varchar</text>
<text text-anchor="start" x="410.692" y="-365.3" font-family="Times,serif" font-size="14.00">current_lat :decimal(10,6)</text>
<text text-anchor="start" x="410.692" y="-351.3" font-family="Times,serif" font-size="14.00">current_lng :decimal(10,6)</text>
<text text-anchor="start" x="410.692" y="-337.3" font-family="Times,serif" font-size="14.00">description :text</text>
<text text-anchor="start" x="410.692" y="-323.3" font-family="Times,serif" font-size="14.00">origin_id :integer</text>
<text text-anchor="start" x="410.692" y="-309.3" font-family="Times,serif" font-size="14.00">destination_id :integer</text>
<text text-anchor="start" x="410.692" y="-295.3" font-family="Times,serif" font-size="14.00">weight :decimal</text>
<text text-anchor="start" x="410.692" y="-281.3" font-family="Times,serif" font-size="14.00">created_at :datetime</text>
<text text-anchor="start" x="410.692" y="-267.3" font-family="Times,serif" font-size="14.00">id :INTEGER</text>
</g>
<!-- ApplicationRecord&#45;&gt;Package -->
<g id="edge9" class="edge"><title>ApplicationRecord&#45;&gt;Package</title>
<path fill="none" stroke="black" d="M303.664,-529.09C329.567,-516.122 365.815,-496.036 393.72,-473 396.719,-470.525 399.702,-467.947 402.66,-465.288"/>
</g>
<!-- User -->
<g id="node8" class="node"><title>User</title>
<path fill="none" stroke="black" d="M599.111,-281.5C599.111,-281.5 742.329,-281.5 742.329,-281.5 748.329,-281.5 754.329,-287.5 754.329,-293.5 754.329,-293.5 754.329,-439.5 754.329,-439.5 754.329,-445.5 748.329,-451.5 742.329,-451.5 742.329,-451.5 599.111,-451.5 599.111,-451.5 593.111,-451.5 587.111,-445.5 587.111,-439.5 587.111,-439.5 587.111,-293.5 587.111,-293.5 587.111,-287.5 593.111,-281.5 599.111,-281.5"/>
<text text-anchor="middle" x="670.72" y="-436.3" font-family="Times,serif" font-size="14.00">User</text>
<polyline fill="none" stroke="black" points="587.111,-429.5 754.329,-429.5 "/>
<text text-anchor="start" x="595.111" y="-414.3" font-family="Times,serif" font-size="14.00">role :integer</text>
<text text-anchor="start" x="595.111" y="-400.3" font-family="Times,serif" font-size="14.00">email :varchar</text>
<text text-anchor="start" x="595.111" y="-386.3" font-family="Times,serif" font-size="14.00">crypted_password :varchar</text>
<text text-anchor="start" x="595.111" y="-372.3" font-family="Times,serif" font-size="14.00">salt :varchar</text>
<text text-anchor="start" x="595.111" y="-358.3" font-family="Times,serif" font-size="14.00">first_name :varchar</text>
<text text-anchor="start" x="595.111" y="-344.3" font-family="Times,serif" font-size="14.00">last_name :varchar</text>
<text text-anchor="start" x="595.111" y="-330.3" font-family="Times,serif" font-size="14.00">created_at :datetime</text>
<text text-anchor="start" x="595.111" y="-316.3" font-family="Times,serif" font-size="14.00">updated_at :datetime</text>
<text text-anchor="start" x="595.111" y="-302.3" font-family="Times,serif" font-size="14.00">document :varchar</text>
<text text-anchor="start" x="595.111" y="-288.3" font-family="Times,serif" font-size="14.00">id :INTEGER</text>
</g>
<!-- ApplicationRecord&#45;&gt;User -->
<g id="edge10" class="edge"><title>ApplicationRecord&#45;&gt;User</title>
<path fill="none" stroke="black" d="M344.595,-539.98C409.91,-533.152 505.725,-516.015 577.72,-473 587.676,-467.052 597.14,-459.678 605.95,-451.614"/>
</g>
<!-- Bus&#45;&gt;Fleet -->
<g id="edge1" class="edge"><title>Bus&#45;&gt;Fleet</title>
<path fill="none" stroke="#3d52e8" d="M87.4818,-308.113C89.3454,-283.888 92.2949,-255.75 95.5068,-231.561"/>
<ellipse fill="none" stroke="#3d52e8" cx="87.1741" cy="-312.323" rx="4" ry="4"/>
<ellipse fill="#3d52e8" stroke="#3d52e8" cx="96.0636" cy="-227.484" rx="4.00001" ry="4.00001"/>
</g>
<!-- City&#45;&gt;Fleet -->
<g id="edge3" class="edge"><title>City&#45;&gt;Fleet</title>
<path fill="none" stroke="#c9f327" d="M114.33,-94.773C114.456,-100.853 114.497,-107.107 114.453,-113.3"/>
<ellipse fill="none" stroke="#c9f327" cx="114.216" cy="-90.6099" rx="4" ry="4"/>
<polygon fill="#c9f327" stroke="#c9f327" points="114.452,-113.379 109.806,-123.312 114.379,-118.378 114.305,-123.378 114.305,-123.378 114.305,-123.378 114.379,-118.378 118.805,-123.444 114.452,-113.379 114.452,-113.379"/>
</g>
<!-- Fleet&#45;&gt;Bus -->
<g id="edge6" class="edge"><title>Fleet&#45;&gt;Bus</title>
<path fill="none" stroke="#d2aada" d="M107.974,-231.693C106.164,-255.272 103.321,-282.585 100.207,-306.363"/>
<ellipse fill="none" stroke="#d2aada" cx="108.279" cy="-227.51" rx="4" ry="4"/>
<polygon fill="#d2aada" stroke="#d2aada" points="100.202,-306.403 94.3997,-315.708 99.5305,-311.358 98.8589,-316.313 98.8589,-316.313 98.8589,-316.313 99.5305,-311.358 103.318,-316.917 100.202,-306.403 100.202,-306.403"/>
</g>
<!-- Fleet&#45;&gt;City -->
<g id="edge5" class="edge"><title>Fleet&#45;&gt;City</title>
<path fill="none" stroke="#7a22bc" d="M101.005,-115.331C100.936,-108.538 100.97,-101.641 101.106,-94.9513"/>
<ellipse fill="none" stroke="#7a22bc" cx="101.07" cy="-119.378" rx="4" ry="4"/>
<ellipse fill="#7a22bc" stroke="#7a22bc" cx="101.225" cy="-90.61" rx="4" ry="4"/>
</g>
</g>
</svg>
