<?xml version="1.0" encoding="UTF-8" standalone="no"?>
<!DOCTYPE svg PUBLIC "-//W3C//DTD SVG 1.1//EN"
 "http://www.w3.org/Graphics/SVG/1.1/DTD/svg11.dtd">
<!-- Generated by graphviz version 2.38.0 (20140413.2041)
 -->
<!-- Title: models_diagram Pages: 1 -->
<svg width="625pt" height="548pt"
 viewBox="0.00 0.00 625.33 548.00" xmlns="http://www.w3.org/2000/svg" xmlns:xlink="http://www.w3.org/1999/xlink">
<g id="graph0" class="graph" transform="scale(1 1) rotate(0) translate(4 544)">
<title>models_diagram</title>
<polygon fill="none" stroke="none" points="-4,4 -4,-544 621.329,-544 621.329,4 -4,4"/>
<!-- _diagram_info -->
<g id="node1" class="node"><title>_diagram_info</title>
<text text-anchor="start" x="8" y="-525.6" font-family="Times,serif" font-size="13.00">Models diagram</text>
<text text-anchor="start" x="8" y="-512.6" font-family="Times,serif" font-size="13.00">Date: Apr 08 2017 &#45; 19:34</text>
<text text-anchor="start" x="8" y="-499.6" font-family="Times,serif" font-size="13.00">Migration version: 6</text>
<text text-anchor="start" x="8" y="-486.6" font-family="Times,serif" font-size="13.00">Generated by RailRoady 1.5.1</text>
<text text-anchor="start" x="8" y="-473.6" font-family="Times,serif" font-size="13.00">http://railroady.prestonlee.com</text>
</g>
<!-- ApplicationRecord -->
<g id="node2" class="node"><title>ApplicationRecord</title>
<ellipse fill="none" stroke="black" cx="270.72" cy="-503.5" rx="77.2916" ry="18"/>
<text text-anchor="middle" x="270.72" y="-499.3" font-family="Times,serif" font-size="14.00">ApplicationRecord</text>
</g>
<!-- Bus -->
<g id="node3" class="node"><title>Bus</title>
<path fill="none" stroke="black" d="M78.5044,-295.5C78.5044,-295.5 192.936,-295.5 192.936,-295.5 198.936,-295.5 204.936,-301.5 204.936,-307.5 204.936,-307.5 204.936,-383.5 204.936,-383.5 204.936,-389.5 198.936,-395.5 192.936,-395.5 192.936,-395.5 78.5044,-395.5 78.5044,-395.5 72.5044,-395.5 66.5044,-389.5 66.5044,-383.5 66.5044,-383.5 66.5044,-307.5 66.5044,-307.5 66.5044,-301.5 72.5044,-295.5 78.5044,-295.5"/>
<text text-anchor="middle" x="135.72" y="-380.3" font-family="Times,serif" font-size="14.00">Bus</text>
<polyline fill="none" stroke="black" points="66.5044,-373.5 204.936,-373.5 "/>
<text text-anchor="start" x="74.5044" y="-358.3" font-family="Times,serif" font-size="14.00">id :INTEGER</text>
<text text-anchor="start" x="74.5044" y="-344.3" font-family="Times,serif" font-size="14.00">license_plate :varchar</text>
<text text-anchor="start" x="74.5044" y="-330.3" font-family="Times,serif" font-size="14.00">fleet_id :integer</text>
<text text-anchor="start" x="74.5044" y="-316.3" font-family="Times,serif" font-size="14.00">created_at :datetime</text>
<text text-anchor="start" x="74.5044" y="-302.3" font-family="Times,serif" font-size="14.00">updated_at :datetime</text>
</g>
<!-- ApplicationRecord&#45;&gt;Bus -->
<g id="edge2" class="edge"><title>ApplicationRecord&#45;&gt;Bus</title>
<path fill="none" stroke="black" d="M256.273,-485.805C237.771,-464.426 204.905,-426.446 178.157,-395.538"/>
</g>
<!-- City -->
<g id="node4" class="node"><title>City</title>
<path fill="none" stroke="black" d="M101.215,-0.5C101.215,-0.5 210.226,-0.5 210.226,-0.5 216.226,-0.5 222.226,-6.5 222.226,-12.5 222.226,-12.5 222.226,-74.5 222.226,-74.5 222.226,-80.5 216.226,-86.5 210.226,-86.5 210.226,-86.5 101.215,-86.5 101.215,-86.5 95.2148,-86.5 89.2148,-80.5 89.2148,-74.5 89.2148,-74.5 89.2148,-12.5 89.2148,-12.5 89.2148,-6.5 95.2148,-0.5 101.215,-0.5"/>
<text text-anchor="middle" x="155.72" y="-71.3" font-family="Times,serif" font-size="14.00">City</text>
<polyline fill="none" stroke="black" points="89.2148,-64.5 222.226,-64.5 "/>
<text text-anchor="start" x="97.2148" y="-49.3" font-family="Times,serif" font-size="14.00">code :INTEGER</text>
<text text-anchor="start" x="97.2148" y="-35.3" font-family="Times,serif" font-size="14.00">name :varchar</text>
<text text-anchor="start" x="97.2148" y="-21.3" font-family="Times,serif" font-size="14.00">created_at :datetime</text>
<text text-anchor="start" x="97.2148" y="-7.3" font-family="Times,serif" font-size="14.00">updated_at :datetime</text>
</g>
<!-- ApplicationRecord&#45;&gt;City -->
<g id="edge4" class="edge"><title>ApplicationRecord&#45;&gt;City</title>
<path fill="none" stroke="black" d="M272.899,-485.141C279.113,-429.305 292.76,-250.553 231.72,-123 225.415,-109.825 216.027,-97.4733 205.982,-86.6421"/>
</g>
<!-- Fleet -->
<g id="node5" class="node"><title>Fleet</title>
<path fill="none" stroke="black" d="M101.215,-123.5C101.215,-123.5 210.226,-123.5 210.226,-123.5 216.226,-123.5 222.226,-129.5 222.226,-135.5 222.226,-135.5 222.226,-211.5 222.226,-211.5 222.226,-217.5 216.226,-223.5 210.226,-223.5 210.226,-223.5 101.215,-223.5 101.215,-223.5 95.2148,-223.5 89.2148,-217.5 89.2148,-211.5 89.2148,-211.5 89.2148,-135.5 89.2148,-135.5 89.2148,-129.5 95.2148,-123.5 101.215,-123.5"/>
<text text-anchor="middle" x="155.72" y="-208.3" font-family="Times,serif" font-size="14.00">Fleet</text>
<polyline fill="none" stroke="black" points="89.2148,-201.5 222.226,-201.5 "/>
<text text-anchor="start" x="97.2148" y="-186.3" font-family="Times,serif" font-size="14.00">id :INTEGER</text>
<text text-anchor="start" x="97.2148" y="-172.3" font-family="Times,serif" font-size="14.00">name :varchar</text>
<text text-anchor="start" x="97.2148" y="-158.3" font-family="Times,serif" font-size="14.00">city_id :integer</text>
<text text-anchor="start" x="97.2148" y="-144.3" font-family="Times,serif" font-size="14.00">created_at :datetime</text>
<text text-anchor="start" x="97.2148" y="-130.3" font-family="Times,serif" font-size="14.00">updated_at :datetime</text>
</g>
<!-- ApplicationRecord&#45;&gt;Fleet -->
<g id="edge7" class="edge"><title>ApplicationRecord&#45;&gt;Fleet</title>
<path fill="none" stroke="black" d="M267.064,-485.332C255.976,-433.52 222.93,-280.99 213.72,-260 208.315,-247.681 201.099,-235.242 193.597,-223.81"/>
</g>
<!-- OrderStatus -->
<g id="node6" class="node"><title>OrderStatus</title>
<path fill="none" stroke="black" d="M311.215,-302.5C311.215,-302.5 420.226,-302.5 420.226,-302.5 426.226,-302.5 432.226,-308.5 432.226,-314.5 432.226,-314.5 432.226,-376.5 432.226,-376.5 432.226,-382.5 426.226,-388.5 420.226,-388.5 420.226,-388.5 311.215,-388.5 311.215,-388.5 305.215,-388.5 299.215,-382.5 299.215,-376.5 299.215,-376.5 299.215,-314.5 299.215,-314.5 299.215,-308.5 305.215,-302.5 311.215,-302.5"/>
<text text-anchor="middle" x="365.72" y="-373.3" font-family="Times,serif" font-size="14.00">OrderStatus</text>
<polyline fill="none" stroke="black" points="299.215,-366.5 432.226,-366.5 "/>
<text text-anchor="start" x="307.215" y="-351.3" font-family="Times,serif" font-size="14.00">id :INTEGER</text>
<text text-anchor="start" x="307.215" y="-337.3" font-family="Times,serif" font-size="14.00">name :varchar</text>
<text text-anchor="start" x="307.215" y="-323.3" font-family="Times,serif" font-size="14.00">created_at :datetime</text>
<text text-anchor="start" x="307.215" y="-309.3" font-family="Times,serif" font-size="14.00">updated_at :datetime</text>
</g>
<!-- ApplicationRecord&#45;&gt;OrderStatus -->
<g id="edge8" class="edge"><title>ApplicationRecord&#45;&gt;OrderStatus</title>
<path fill="none" stroke="black" d="M281.068,-485.508C295.11,-462.45 320.669,-420.479 340.041,-388.668"/>
</g>
<!-- User -->
<g id="node7" class="node"><title>User</title>
<path fill="none" stroke="black" d="M462.111,-260.5C462.111,-260.5 605.329,-260.5 605.329,-260.5 611.329,-260.5 617.329,-266.5 617.329,-272.5 617.329,-272.5 617.329,-418.5 617.329,-418.5 617.329,-424.5 611.329,-430.5 605.329,-430.5 605.329,-430.5 462.111,-430.5 462.111,-430.5 456.111,-430.5 450.111,-424.5 450.111,-418.5 450.111,-418.5 450.111,-272.5 450.111,-272.5 450.111,-266.5 456.111,-260.5 462.111,-260.5"/>
<text text-anchor="middle" x="533.72" y="-415.3" font-family="Times,serif" font-size="14.00">User</text>
<polyline fill="none" stroke="black" points="450.111,-408.5 617.329,-408.5 "/>
<text text-anchor="start" x="458.111" y="-393.3" font-family="Times,serif" font-size="14.00">role :integer</text>
<text text-anchor="start" x="458.111" y="-379.3" font-family="Times,serif" font-size="14.00">email :varchar</text>
<text text-anchor="start" x="458.111" y="-365.3" font-family="Times,serif" font-size="14.00">crypted_password :varchar</text>
<text text-anchor="start" x="458.111" y="-351.3" font-family="Times,serif" font-size="14.00">salt :varchar</text>
<text text-anchor="start" x="458.111" y="-337.3" font-family="Times,serif" font-size="14.00">first_name :varchar</text>
<text text-anchor="start" x="458.111" y="-323.3" font-family="Times,serif" font-size="14.00">last_name :varchar</text>
<text text-anchor="start" x="458.111" y="-309.3" font-family="Times,serif" font-size="14.00">created_at :datetime</text>
<text text-anchor="start" x="458.111" y="-295.3" font-family="Times,serif" font-size="14.00">updated_at :datetime</text>
<text text-anchor="start" x="458.111" y="-281.3" font-family="Times,serif" font-size="14.00">document :varchar</text>
<text text-anchor="start" x="458.111" y="-267.3" font-family="Times,serif" font-size="14.00">id :INTEGER</text>
</g>
<!-- ApplicationRecord&#45;&gt;User -->
<g id="edge9" class="edge"><title>ApplicationRecord&#45;&gt;User</title>
<path fill="none" stroke="black" d="M315.293,-488.647C351.07,-476.429 401.748,-456.592 441.72,-431 444.46,-429.246 447.194,-427.407 449.915,-425.5"/>
</g>
<!-- Bus&#45;&gt;Fleet -->
<g id="edge1" class="edge"><title>Bus&#45;&gt;Fleet</title>
<path fill="none" stroke="#1e710c" d="M136.037,-287.243C137.703,-269.324 140.03,-249.558 142.58,-231.646"/>
<ellipse fill="none" stroke="#1e710c" cx="135.673" cy="-291.345" rx="4" ry="4"/>
<ellipse fill="#1e710c" stroke="#1e710c" cx="143.186" cy="-227.518" rx="4.00001" ry="4.00001"/>
</g>
<!-- City&#45;&gt;Fleet -->
<g id="edge3" class="edge"><title>City&#45;&gt;Fleet</title>
<path fill="none" stroke="#12cb02" d="M162.33,-94.773C162.456,-100.853 162.497,-107.107 162.453,-113.3"/>
<ellipse fill="none" stroke="#12cb02" cx="162.216" cy="-90.6099" rx="4" ry="4"/>
<polygon fill="#12cb02" stroke="#12cb02" points="162.452,-113.379 157.806,-123.312 162.379,-118.378 162.305,-123.378 162.305,-123.378 162.305,-123.378 162.379,-118.378 166.805,-123.444 162.452,-113.379 162.452,-113.379"/>
</g>
<!-- Fleet&#45;&gt;Bus -->
<g id="edge6" class="edge"><title>Fleet&#45;&gt;Bus</title>
<path fill="none" stroke="#c65d28" d="M155.394,-231.861C153.791,-249.075 151.581,-267.987 149.148,-285.316"/>
<ellipse fill="none" stroke="#c65d28" cx="155.777" cy="-227.545" rx="4" ry="4"/>
<polygon fill="#c65d28" stroke="#c65d28" points="149.131,-285.433 143.238,-294.681 148.411,-290.381 147.691,-295.329 147.691,-295.329 147.691,-295.329 148.411,-290.381 152.144,-295.977 149.131,-285.433 149.131,-285.433"/>
</g>
<!-- Fleet&#45;&gt;City -->
<g id="edge5" class="edge"><title>Fleet&#45;&gt;City</title>
<path fill="none" stroke="#9c93de" d="M149.005,-115.331C148.936,-108.538 148.97,-101.641 149.106,-94.9513"/>
<ellipse fill="none" stroke="#9c93de" cx="149.07" cy="-119.378" rx="4" ry="4"/>
<ellipse fill="#9c93de" stroke="#9c93de" cx="149.225" cy="-90.61" rx="4" ry="4"/>
</g>
</g>
</svg>
