<?xml version="1.0" encoding="UTF-8" standalone="no"?>
<!DOCTYPE svg PUBLIC "-//W3C//DTD SVG 1.1//EN"
 "http://www.w3.org/Graphics/SVG/1.1/DTD/svg11.dtd">
<!-- Generated by graphviz version 2.38.0 (20140413.2041)
 -->
<!-- Title: models_diagram Pages: 1 -->
<svg width="604pt" height="1000pt"
 viewBox="0.00 0.00 604.33 1000.00" xmlns="http://www.w3.org/2000/svg" xmlns:xlink="http://www.w3.org/1999/xlink">
<g id="graph0" class="graph" transform="scale(1 1) rotate(0) translate(4 996)">
<title>models_diagram</title>
<polygon fill="none" stroke="none" points="-4,4 -4,-996 600.329,-996 600.329,4 -4,4"/>
<!-- _diagram_info -->
<g id="node1" class="node"><title>_diagram_info</title>
<text text-anchor="start" x="8" y="-977.6" font-family="Times,serif" font-size="13.00">Models diagram</text>
<text text-anchor="start" x="8" y="-964.6" font-family="Times,serif" font-size="13.00">Date: Apr 08 2017 &#45; 22:49</text>
<text text-anchor="start" x="8" y="-951.6" font-family="Times,serif" font-size="13.00">Migration version: 7</text>
<text text-anchor="start" x="8" y="-938.6" font-family="Times,serif" font-size="13.00">Generated by RailRoady 1.5.1</text>
<text text-anchor="start" x="8" y="-925.6" font-family="Times,serif" font-size="13.00">http://railroady.prestonlee.com</text>
</g>
<!-- ApplicationRecord -->
<g id="node2" class="node"><title>ApplicationRecord</title>
<ellipse fill="none" stroke="black" cx="270.72" cy="-955.5" rx="77.2916" ry="18"/>
<text text-anchor="middle" x="270.72" y="-951.3" font-family="Times,serif" font-size="14.00">ApplicationRecord</text>
</g>
<!-- Bus -->
<g id="node3" class="node"><title>Bus</title>
<path fill="none" stroke="black" d="M57.5044,-781.5C57.5044,-781.5 171.936,-781.5 171.936,-781.5 177.936,-781.5 183.936,-787.5 183.936,-793.5 183.936,-793.5 183.936,-869.5 183.936,-869.5 183.936,-875.5 177.936,-881.5 171.936,-881.5 171.936,-881.5 57.5044,-881.5 57.5044,-881.5 51.5044,-881.5 45.5044,-875.5 45.5044,-869.5 45.5044,-869.5 45.5044,-793.5 45.5044,-793.5 45.5044,-787.5 51.5044,-781.5 57.5044,-781.5"/>
<text text-anchor="middle" x="114.72" y="-866.3" font-family="Times,serif" font-size="14.00">Bus</text>
<polyline fill="none" stroke="black" points="45.5044,-859.5 183.936,-859.5 "/>
<text text-anchor="start" x="53.5044" y="-844.3" font-family="Times,serif" font-size="14.00">id :INTEGER</text>
<text text-anchor="start" x="53.5044" y="-830.3" font-family="Times,serif" font-size="14.00">license_plate :varchar</text>
<text text-anchor="start" x="53.5044" y="-816.3" font-family="Times,serif" font-size="14.00">fleet_id :integer</text>
<text text-anchor="start" x="53.5044" y="-802.3" font-family="Times,serif" font-size="14.00">created_at :datetime</text>
<text text-anchor="start" x="53.5044" y="-788.3" font-family="Times,serif" font-size="14.00">updated_at :datetime</text>
</g>
<!-- ApplicationRecord&#45;&gt;Bus -->
<g id="edge3" class="edge"><title>ApplicationRecord&#45;&gt;Bus</title>
<path fill="none" stroke="black" d="M247.78,-938.204C233.273,-927.772 214.214,-913.833 197.72,-901 189.757,-894.805 181.461,-888.175 173.326,-881.57"/>
</g>
<!-- City -->
<g id="node4" class="node"><title>City</title>
<path fill="none" stroke="black" d="M109.215,-263.5C109.215,-263.5 218.226,-263.5 218.226,-263.5 224.226,-263.5 230.226,-269.5 230.226,-275.5 230.226,-275.5 230.226,-337.5 230.226,-337.5 230.226,-343.5 224.226,-349.5 218.226,-349.5 218.226,-349.5 109.215,-349.5 109.215,-349.5 103.215,-349.5 97.2148,-343.5 97.2148,-337.5 97.2148,-337.5 97.2148,-275.5 97.2148,-275.5 97.2148,-269.5 103.215,-263.5 109.215,-263.5"/>
<text text-anchor="middle" x="163.72" y="-334.3" font-family="Times,serif" font-size="14.00">City</text>
<polyline fill="none" stroke="black" points="97.2148,-327.5 230.226,-327.5 "/>
<text text-anchor="start" x="105.215" y="-312.3" font-family="Times,serif" font-size="14.00">code :INTEGER</text>
<text text-anchor="start" x="105.215" y="-298.3" font-family="Times,serif" font-size="14.00">name :varchar</text>
<text text-anchor="start" x="105.215" y="-284.3" font-family="Times,serif" font-size="14.00">created_at :datetime</text>
<text text-anchor="start" x="105.215" y="-270.3" font-family="Times,serif" font-size="14.00">updated_at :datetime</text>
</g>
<!-- ApplicationRecord&#45;&gt;City -->
<g id="edge7" class="edge"><title>ApplicationRecord&#45;&gt;City</title>
<path fill="none" stroke="black" d="M269.935,-937.324C267.198,-881.873 256.791,-702.768 230.72,-557 215.442,-471.578 204.986,-451.6 181.72,-368 180.075,-362.088 178.288,-355.867 176.5,-349.756"/>
</g>
<!-- Fleet -->
<g id="node5" class="node"><title>Fleet</title>
<path fill="none" stroke="black" d="M100.215,-557.5C100.215,-557.5 209.226,-557.5 209.226,-557.5 215.226,-557.5 221.226,-563.5 221.226,-569.5 221.226,-569.5 221.226,-645.5 221.226,-645.5 221.226,-651.5 215.226,-657.5 209.226,-657.5 209.226,-657.5 100.215,-657.5 100.215,-657.5 94.2148,-657.5 88.2148,-651.5 88.2148,-645.5 88.2148,-645.5 88.2148,-569.5 88.2148,-569.5 88.2148,-563.5 94.2148,-557.5 100.215,-557.5"/>
<text text-anchor="middle" x="154.72" y="-642.3" font-family="Times,serif" font-size="14.00">Fleet</text>
<polyline fill="none" stroke="black" points="88.2148,-635.5 221.226,-635.5 "/>
<text text-anchor="start" x="96.2148" y="-620.3" font-family="Times,serif" font-size="14.00">id :INTEGER</text>
<text text-anchor="start" x="96.2148" y="-606.3" font-family="Times,serif" font-size="14.00">name :varchar</text>
<text text-anchor="start" x="96.2148" y="-592.3" font-family="Times,serif" font-size="14.00">city_id :integer</text>
<text text-anchor="start" x="96.2148" y="-578.3" font-family="Times,serif" font-size="14.00">created_at :datetime</text>
<text text-anchor="start" x="96.2148" y="-564.3" font-family="Times,serif" font-size="14.00">updated_at :datetime</text>
</g>
<!-- ApplicationRecord&#45;&gt;Fleet -->
<g id="edge10" class="edge"><title>ApplicationRecord&#45;&gt;Fleet</title>
<path fill="none" stroke="black" d="M257.611,-937.459C250.325,-927.32 241.575,-913.945 235.72,-901 198.807,-819.382 175.2,-717.177 163.505,-657.718"/>
</g>
<!-- OrderStatus -->
<g id="node6" class="node"><title>OrderStatus</title>
<path fill="none" stroke="black" d="M277.215,-676.5C277.215,-676.5 386.226,-676.5 386.226,-676.5 392.226,-676.5 398.226,-682.5 398.226,-688.5 398.226,-688.5 398.226,-750.5 398.226,-750.5 398.226,-756.5 392.226,-762.5 386.226,-762.5 386.226,-762.5 277.215,-762.5 277.215,-762.5 271.215,-762.5 265.215,-756.5 265.215,-750.5 265.215,-750.5 265.215,-688.5 265.215,-688.5 265.215,-682.5 271.215,-676.5 277.215,-676.5"/>
<text text-anchor="middle" x="331.72" y="-747.3" font-family="Times,serif" font-size="14.00">OrderStatus</text>
<polyline fill="none" stroke="black" points="265.215,-740.5 398.226,-740.5 "/>
<text text-anchor="start" x="273.215" y="-725.3" font-family="Times,serif" font-size="14.00">id :INTEGER</text>
<text text-anchor="start" x="273.215" y="-711.3" font-family="Times,serif" font-size="14.00">name :varchar</text>
<text text-anchor="start" x="273.215" y="-697.3" font-family="Times,serif" font-size="14.00">created_at :datetime</text>
<text text-anchor="start" x="273.215" y="-683.3" font-family="Times,serif" font-size="14.00">updated_at :datetime</text>
</g>
<!-- ApplicationRecord&#45;&gt;OrderStatus -->
<g id="edge12" class="edge"><title>ApplicationRecord&#45;&gt;OrderStatus</title>
<path fill="none" stroke="black" d="M275.206,-937.293C284.726,-900.775 307.188,-814.608 320.752,-762.573"/>
</g>
<!-- Package -->
<g id="node7" class="node"><title>Package</title>
<path fill="none" stroke="black" d="M213.692,-0.5C213.692,-0.5 355.748,-0.5 355.748,-0.5 361.748,-0.5 367.748,-6.5 367.748,-12.5 367.748,-12.5 367.748,-200.5 367.748,-200.5 367.748,-206.5 361.748,-212.5 355.748,-212.5 355.748,-212.5 213.692,-212.5 213.692,-212.5 207.692,-212.5 201.692,-206.5 201.692,-200.5 201.692,-200.5 201.692,-12.5 201.692,-12.5 201.692,-6.5 207.692,-0.5 213.692,-0.5"/>
<text text-anchor="middle" x="284.72" y="-197.3" font-family="Times,serif" font-size="14.00">Package</text>
<polyline fill="none" stroke="black" points="201.692,-190.5 367.748,-190.5 "/>
<text text-anchor="start" x="209.692" y="-175.3" font-family="Times,serif" font-size="14.00">updated_at :datetime</text>
<text text-anchor="start" x="209.692" y="-161.3" font-family="Times,serif" font-size="14.00">user_id :integer</text>
<text text-anchor="start" x="209.692" y="-147.3" font-family="Times,serif" font-size="14.00">order_status_id :integer</text>
<text text-anchor="start" x="209.692" y="-133.3" font-family="Times,serif" font-size="14.00">bus_id :integer</text>
<text text-anchor="start" x="209.692" y="-119.3" font-family="Times,serif" font-size="14.00">trackingid :varchar</text>
<text text-anchor="start" x="209.692" y="-105.3" font-family="Times,serif" font-size="14.00">current_lat :decimal(10,6)</text>
<text text-anchor="start" x="209.692" y="-91.3" font-family="Times,serif" font-size="14.00">current_lng :decimal(10,6)</text>
<text text-anchor="start" x="209.692" y="-77.3" font-family="Times,serif" font-size="14.00">description :text</text>
<text text-anchor="start" x="209.692" y="-63.3" font-family="Times,serif" font-size="14.00">origin_id :integer</text>
<text text-anchor="start" x="209.692" y="-49.3" font-family="Times,serif" font-size="14.00">destination_id :integer</text>
<text text-anchor="start" x="209.692" y="-35.3" font-family="Times,serif" font-size="14.00">weight :decimal</text>
<text text-anchor="start" x="209.692" y="-21.3" font-family="Times,serif" font-size="14.00">created_at :datetime</text>
<text text-anchor="start" x="209.692" y="-7.3" font-family="Times,serif" font-size="14.00">id :INTEGER</text>
</g>
<!-- ApplicationRecord&#45;&gt;Package -->
<g id="edge13" class="edge"><title>ApplicationRecord&#45;&gt;Package</title>
<path fill="none" stroke="black" d="M310.934,-940.115C353.23,-922.099 413.72,-886.835 413.72,-832.5 413.72,-832.5 413.72,-832.5 413.72,-305.5 413.72,-263.242 392.838,-222.936 367.876,-189.853"/>
</g>
<!-- User -->
<g id="node8" class="node"><title>User</title>
<path fill="none" stroke="black" d="M441.111,-368.5C441.111,-368.5 584.329,-368.5 584.329,-368.5 590.329,-368.5 596.329,-374.5 596.329,-380.5 596.329,-380.5 596.329,-526.5 596.329,-526.5 596.329,-532.5 590.329,-538.5 584.329,-538.5 584.329,-538.5 441.111,-538.5 441.111,-538.5 435.111,-538.5 429.111,-532.5 429.111,-526.5 429.111,-526.5 429.111,-380.5 429.111,-380.5 429.111,-374.5 435.111,-368.5 441.111,-368.5"/>
<text text-anchor="middle" x="512.72" y="-523.3" font-family="Times,serif" font-size="14.00">User</text>
<polyline fill="none" stroke="black" points="429.111,-516.5 596.329,-516.5 "/>
<text text-anchor="start" x="437.111" y="-501.3" font-family="Times,serif" font-size="14.00">role :integer</text>
<text text-anchor="start" x="437.111" y="-487.3" font-family="Times,serif" font-size="14.00">email :varchar</text>
<text text-anchor="start" x="437.111" y="-473.3" font-family="Times,serif" font-size="14.00">crypted_password :varchar</text>
<text text-anchor="start" x="437.111" y="-459.3" font-family="Times,serif" font-size="14.00">salt :varchar</text>
<text text-anchor="start" x="437.111" y="-445.3" font-family="Times,serif" font-size="14.00">first_name :varchar</text>
<text text-anchor="start" x="437.111" y="-431.3" font-family="Times,serif" font-size="14.00">last_name :varchar</text>
<text text-anchor="start" x="437.111" y="-417.3" font-family="Times,serif" font-size="14.00">created_at :datetime</text>
<text text-anchor="start" x="437.111" y="-403.3" font-family="Times,serif" font-size="14.00">updated_at :datetime</text>
<text text-anchor="start" x="437.111" y="-389.3" font-family="Times,serif" font-size="14.00">document :varchar</text>
<text text-anchor="start" x="437.111" y="-375.3" font-family="Times,serif" font-size="14.00">id :INTEGER</text>
</g>
<!-- ApplicationRecord&#45;&gt;User -->
<g id="edge15" class="edge"><title>ApplicationRecord&#45;&gt;User</title>
<path fill="none" stroke="black" d="M338.975,-946.984C370.339,-940.023 405.436,-926.652 427.72,-901 515.306,-800.176 524.233,-637.504 520.226,-538.834"/>
</g>
<!-- Bus&#45;&gt;Fleet -->
<g id="edge1" class="edge"><title>Bus&#45;&gt;Fleet</title>
<path fill="none" stroke="#74e6e3" d="M119.04,-773.283C123.976,-740.267 131.432,-698.878 138.395,-665.841"/>
<ellipse fill="none" stroke="#74e6e3" cx="118.456" cy="-777.273" rx="4.00001" ry="4.00001"/>
<ellipse fill="#74e6e3" stroke="#74e6e3" cx="139.315" cy="-661.543" rx="4.00001" ry="4.00001"/>
</g>
<!-- Bus&#45;&gt;Package -->
<g id="edge2" class="edge"><title>Bus&#45;&gt;Package</title>
<path fill="none" stroke="#5050f8" d="M94.4993,-773.452C60.2792,-666.656 2.5513,-432.09 87.7202,-263 110.503,-217.769 153.208,-181.555 193.048,-155.494"/>
<ellipse fill="none" stroke="#5050f8" cx="95.7871" cy="-777.422" rx="4.00001" ry="4.00001"/>
<polygon fill="#5050f8" stroke="#5050f8" points="193.075,-155.477 203.924,-153.878 197.287,-152.782 201.498,-150.087 201.498,-150.087 201.498,-150.087 197.287,-152.782 199.073,-146.297 193.075,-155.477 193.075,-155.477"/>
</g>
<!-- City&#45;&gt;Fleet -->
<g id="edge4" class="edge"><title>City&#45;&gt;Fleet</title>
<path fill="none" stroke="#d39299" d="M167.408,-357.924C167.787,-410.226 165.427,-491.954 162.01,-547.291"/>
<ellipse fill="none" stroke="#d39299" cx="167.365" cy="-353.791" rx="4" ry="4"/>
<polygon fill="#d39299" stroke="#d39299" points="161.998,-547.482 156.859,-557.169 161.674,-552.472 161.35,-557.461 161.35,-557.461 161.35,-557.461 161.674,-552.472 165.84,-557.753 161.998,-547.482 161.998,-547.482"/>
</g>
<!-- City&#45;&gt;Package -->
<g id="edge5" class="edge"><title>City&#45;&gt;Package</title>
<path fill="none" stroke="#9e1099" d="M158.996,-255.163C159.669,-246.873 161.286,-238.535 164.389,-231 171.573,-213.557 182.511,-197.219 194.921,-182.498"/>
<ellipse fill="none" stroke="#9e1099" cx="158.801" cy="-259.409" rx="4" ry="4"/>
<polygon fill="#9e1099" stroke="#9e1099" points="194.943,-182.472 204.917,-177.914 198.237,-178.711 201.532,-174.949 201.532,-174.949 201.532,-174.949 198.237,-178.711 198.147,-171.985 194.943,-182.472 194.943,-182.472"/>
<text text-anchor="middle" x="189.386" y="-233.8" font-family="Times,serif" font-size="14.00">origin_id</text>
</g>
<!-- City&#45;&gt;Package -->
<g id="edge6" class="edge"><title>City&#45;&gt;Package</title>
<path fill="none" stroke="#3b5559" d="M207.335,-256.744C210.284,-252.854 213.114,-248.914 215.72,-245 220.722,-237.491 225.604,-229.569 230.313,-221.474"/>
<ellipse fill="none" stroke="#3b5559" cx="204.74" cy="-260.076" rx="4.00002" ry="4.00002"/>
<polygon fill="#3b5559" stroke="#3b5559" points="230.4,-221.322 239.261,-214.862 232.876,-216.978 235.351,-212.634 235.351,-212.634 235.351,-212.634 232.876,-216.978 231.442,-210.406 230.4,-221.322 230.4,-221.322"/>
<text text-anchor="middle" x="261.382" y="-233.8" font-family="Times,serif" font-size="14.00">destination_id</text>
</g>
<!-- Fleet&#45;&gt;Bus -->
<g id="edge9" class="edge"><title>Fleet&#45;&gt;Bus</title>
<path fill="none" stroke="#a7bbc2" d="M150.408,-665.664C145.578,-697.978 138.332,-738.325 131.496,-771.013"/>
<ellipse fill="none" stroke="#a7bbc2" cx="151.004" cy="-661.589" rx="4.00001" ry="4.00001"/>
<polygon fill="#a7bbc2" stroke="#a7bbc2" points="131.403,-771.451 124.916,-780.293 130.36,-776.341 129.318,-781.231 129.318,-781.231 129.318,-781.231 130.36,-776.341 133.719,-782.169 131.403,-771.451 131.403,-771.451"/>
</g>
<!-- Fleet&#45;&gt;City -->
<g id="edge8" class="edge"><title>Fleet&#45;&gt;City</title>
<path fill="none" stroke="#680fd5" d="M150.999,-549.45C150.842,-494.134 153.42,-411.02 156.989,-358.028"/>
<ellipse fill="none" stroke="#680fd5" cx="151.021" cy="-553.461" rx="4" ry="4"/>
<ellipse fill="#680fd5" stroke="#680fd5" cx="157.289" cy="-353.781" rx="4" ry="4"/>
</g>
<!-- OrderStatus&#45;&gt;Package -->
<g id="edge11" class="edge"><title>OrderStatus&#45;&gt;Package</title>
<path fill="none" stroke="#48cf73" d="M330.675,-668.059C328.448,-579.412 321.948,-389.991 304.72,-231 304.423,-228.26 304.107,-225.489 303.773,-222.695"/>
<ellipse fill="none" stroke="#48cf73" cx="330.779" cy="-672.32" rx="4" ry="4"/>
<polygon fill="#48cf73" stroke="#48cf73" points="303.739,-222.425 306.961,-211.943 303.118,-217.464 302.496,-212.503 302.496,-212.503 302.496,-212.503 303.118,-217.464 298.031,-213.063 303.739,-222.425 303.739,-222.425"/>
</g>
<!-- User&#45;&gt;Package -->
<g id="edge14" class="edge"><title>User&#45;&gt;Package</title>
<path fill="none" stroke="#1fab20" d="M488.664,-360.561C474.98,-318.666 455.026,-269.867 427.72,-231 413.237,-210.384 394.573,-191.023 375.54,-174.018"/>
<ellipse fill="none" stroke="#1fab20" cx="489.924" cy="-364.49" rx="4.00001" ry="4.00001"/>
<polygon fill="#1fab20" stroke="#1fab20" points="375.474,-173.96 370.914,-163.987 371.712,-170.667 367.95,-167.373 367.95,-167.373 367.95,-167.373 371.712,-170.667 364.985,-170.759 375.474,-173.96 375.474,-173.96"/>
</g>
</g>
</svg>
