<?xml version="1.0" encoding="UTF-8" standalone="no"?>
<!DOCTYPE svg PUBLIC "-//W3C//DTD SVG 1.1//EN"
 "http://www.w3.org/Graphics/SVG/1.1/DTD/svg11.dtd">
<!-- Generated by graphviz version 2.38.0 (20140413.2041)
 -->
<!-- Title: models_diagram Pages: 1 -->
<svg width="483pt" height="297pt"
 viewBox="0.00 0.00 482.72 297.00" xmlns="http://www.w3.org/2000/svg" xmlns:xlink="http://www.w3.org/1999/xlink">
<g id="graph0" class="graph" transform="scale(1 1) rotate(0) translate(4 293)">
<title>models_diagram</title>
<polygon fill="none" stroke="none" points="-4,4 -4,-293 478.72,-293 478.72,4 -4,4"/>
<!-- _diagram_info -->
<g id="node1" class="node"><title>_diagram_info</title>
<text text-anchor="start" x="8" y="-274.6" font-family="Times,serif" font-size="13.00">Models diagram</text>
<text text-anchor="start" x="8" y="-261.6" font-family="Times,serif" font-size="13.00">Date: Apr 08 2017 &#45; 19:34</text>
<text text-anchor="start" x="8" y="-248.6" font-family="Times,serif" font-size="13.00">Migration version: 6</text>
<text text-anchor="start" x="8" y="-235.6" font-family="Times,serif" font-size="13.00">Generated by RailRoady 1.5.1</text>
<text text-anchor="start" x="8" y="-222.6" font-family="Times,serif" font-size="13.00">http://railroady.prestonlee.com</text>
</g>
<!-- ApplicationRecord -->
<g id="node2" class="node"><title>ApplicationRecord</title>
<ellipse fill="none" stroke="black" cx="270.72" cy="-252.5" rx="77.2916" ry="18"/>
<text text-anchor="middle" x="270.72" y="-248.3" font-family="Times,serif" font-size="14.00">ApplicationRecord</text>
</g>
<!-- Bus -->
<g id="node3" class="node"><title>Bus</title>
<ellipse fill="none" stroke="black" cx="177.72" cy="-162" rx="27" ry="18"/>
<text text-anchor="middle" x="177.72" y="-157.8" font-family="Times,serif" font-size="14.00">Bus</text>
</g>
<!-- ApplicationRecord&#45;&gt;Bus -->
<g id="edge2" class="edge"><title>ApplicationRecord&#45;&gt;Bus</title>
<path fill="none" stroke="black" d="M253.228,-234.854C235.759,-218.23 209.196,-192.953 192.678,-177.234"/>
</g>
<!-- City -->
<g id="node4" class="node"><title>City</title>
<ellipse fill="none" stroke="black" cx="195.72" cy="-18" rx="27" ry="18"/>
<text text-anchor="middle" x="195.72" y="-13.8" font-family="Times,serif" font-size="14.00">City</text>
</g>
<!-- ApplicationRecord&#45;&gt;City -->
<g id="edge4" class="edge"><title>ApplicationRecord&#45;&gt;City</title>
<path fill="none" stroke="black" d="M269.391,-234.486C266.353,-201.786 257.172,-128.406 232.72,-72 226.74,-58.2033 216.882,-44.3287 208.846,-34.2379"/>
</g>
<!-- Fleet -->
<g id="node5" class="node"><title>Fleet</title>
<ellipse fill="none" stroke="black" cx="195.72" cy="-90" rx="27.5804" ry="18"/>
<text text-anchor="middle" x="195.72" y="-85.8" font-family="Times,serif" font-size="14.00">Fleet</text>
</g>
<!-- ApplicationRecord&#45;&gt;Fleet -->
<g id="edge7" class="edge"><title>ApplicationRecord&#45;&gt;Fleet</title>
<path fill="none" stroke="black" d="M262.694,-234.324C248.183,-203.27 217.766,-138.177 203.464,-107.572"/>
</g>
<!-- OrderStatus -->
<g id="node6" class="node"><title>OrderStatus</title>
<ellipse fill="none" stroke="black" cx="350.72" cy="-162" rx="52.202" ry="18"/>
<text text-anchor="middle" x="350.72" y="-157.8" font-family="Times,serif" font-size="14.00">OrderStatus</text>
</g>
<!-- ApplicationRecord&#45;&gt;OrderStatus -->
<g id="edge8" class="edge"><title>ApplicationRecord&#45;&gt;OrderStatus</title>
<path fill="none" stroke="black" d="M286.145,-234.436C300.493,-218.564 321.728,-195.073 335.884,-179.413"/>
</g>
<!-- User -->
<g id="node7" class="node"><title>User</title>
<ellipse fill="none" stroke="black" cx="447.72" cy="-162" rx="27" ry="18"/>
<text text-anchor="middle" x="447.72" y="-157.8" font-family="Times,serif" font-size="14.00">User</text>
</g>
<!-- ApplicationRecord&#45;&gt;User -->
<g id="edge9" class="edge"><title>ApplicationRecord&#45;&gt;User</title>
<path fill="none" stroke="black" d="M301.957,-235.882C337.883,-217.918 395.874,-188.923 426.769,-173.476"/>
</g>
<!-- Bus&#45;&gt;Fleet -->
<g id="edge1" class="edge"><title>Bus&#45;&gt;Fleet</title>
<path fill="none" stroke="#39666b" d="M177.716,-135.677C179.105,-128.985 180.978,-121.78 183.057,-115.151"/>
<ellipse fill="none" stroke="#39666b" cx="176.972" cy="-139.762" rx="4.00001" ry="4.00001"/>
<ellipse fill="#39666b" stroke="#39666b" cx="184.491" cy="-110.932" rx="4.00001" ry="4.00001"/>
</g>
<!-- City&#45;&gt;Fleet -->
<g id="edge3" class="edge"><title>City&#45;&gt;Fleet</title>
<path fill="none" stroke="#61f409" d="M202.215,-43.9262C202.517,-49.7349 202.551,-55.9482 202.317,-61.8479"/>
<ellipse fill="none" stroke="#61f409" cx="201.892" cy="-39.7769" rx="4" ry="4"/>
<polygon fill="#61f409" stroke="#61f409" points="202.301,-62.0796 197.11,-71.7389 201.95,-67.0673 201.598,-72.055 201.598,-72.055 201.598,-72.055 201.95,-67.0673 206.087,-72.371 202.301,-62.0796 202.301,-62.0796"/>
</g>
<!-- Fleet&#45;&gt;Bus -->
<g id="edge6" class="edge"><title>Fleet&#45;&gt;Bus</title>
<path fill="none" stroke="#9d72d0" d="M195.708,-116.398C194.419,-122.6 192.715,-129.237 190.818,-135.446"/>
<ellipse fill="none" stroke="#9d72d0" cx="196.47" cy="-112.227" rx="4.00001" ry="4.00001"/>
<polygon fill="#9d72d0" stroke="#9d72d0" points="190.753,-135.638 183.3,-143.681 189.159,-140.377 187.566,-145.116 187.566,-145.116 187.566,-145.116 189.159,-140.377 191.831,-146.55 190.753,-135.638 190.753,-135.638"/>
</g>
<!-- Fleet&#45;&gt;City -->
<g id="edge5" class="edge"><title>Fleet&#45;&gt;City</title>
<path fill="none" stroke="#5f6922" d="M189.214,-63.8609C188.889,-57.4491 188.889,-50.5566 189.214,-44.1446"/>
<ellipse fill="none" stroke="#5f6922" cx="189.536" cy="-68.0666" rx="4" ry="4"/>
<ellipse fill="#5f6922" stroke="#5f6922" cx="189.551" cy="-39.7771" rx="4" ry="4"/>
</g>
</g>
</svg>
