<?xml version="1.0" encoding="UTF-8" standalone="no"?>
<!DOCTYPE svg PUBLIC "-//W3C//DTD SVG 1.1//EN"
 "http://www.w3.org/Graphics/SVG/1.1/DTD/svg11.dtd">
<!-- Generated by graphviz version 2.38.0 (20140413.2041)
 -->
<!-- Title: models_diagram Pages: 1 -->
<svg width="462pt" height="456pt"
 viewBox="0.00 0.00 461.72 456.00" xmlns="http://www.w3.org/2000/svg" xmlns:xlink="http://www.w3.org/1999/xlink">
<g id="graph0" class="graph" transform="scale(1 1) rotate(0) translate(4 452)">
<title>models_diagram</title>
<polygon fill="none" stroke="none" points="-4,4 -4,-452 457.72,-452 457.72,4 -4,4"/>
<!-- _diagram_info -->
<g id="node1" class="node"><title>_diagram_info</title>
<text text-anchor="start" x="8" y="-433.6" font-family="Times,serif" font-size="13.00">Models diagram</text>
<text text-anchor="start" x="8" y="-420.6" font-family="Times,serif" font-size="13.00">Date: Apr 08 2017 &#45; 22:49</text>
<text text-anchor="start" x="8" y="-407.6" font-family="Times,serif" font-size="13.00">Migration version: 7</text>
<text text-anchor="start" x="8" y="-394.6" font-family="Times,serif" font-size="13.00">Generated by RailRoady 1.5.1</text>
<text text-anchor="start" x="8" y="-381.6" font-family="Times,serif" font-size="13.00">http://railroady.prestonlee.com</text>
</g>
<!-- ApplicationRecord -->
<g id="node2" class="node"><title>ApplicationRecord</title>
<ellipse fill="none" stroke="black" cx="270.72" cy="-411.5" rx="77.2916" ry="18"/>
<text text-anchor="middle" x="270.72" y="-407.3" font-family="Times,serif" font-size="14.00">ApplicationRecord</text>
</g>
<!-- Bus -->
<g id="node3" class="node"><title>Bus</title>
<ellipse fill="none" stroke="black" cx="157.72" cy="-320" rx="27" ry="18"/>
<text text-anchor="middle" x="157.72" y="-315.8" font-family="Times,serif" font-size="14.00">Bus</text>
</g>
<!-- ApplicationRecord&#45;&gt;Bus -->
<g id="edge3" class="edge"><title>ApplicationRecord&#45;&gt;Bus</title>
<path fill="none" stroke="black" d="M247.66,-394.099C233.35,-383.743 214.707,-369.923 198.72,-357 190.027,-349.973 180.637,-341.776 173.04,-334.979"/>
</g>
<!-- City -->
<g id="node4" class="node"><title>City</title>
<ellipse fill="none" stroke="black" cx="194.72" cy="-104" rx="27" ry="18"/>
<text text-anchor="middle" x="194.72" y="-99.8" font-family="Times,serif" font-size="14.00">City</text>
</g>
<!-- ApplicationRecord&#45;&gt;City -->
<g id="edge7" class="edge"><title>ApplicationRecord&#45;&gt;City</title>
<path fill="none" stroke="black" d="M268.073,-393.293C262.319,-356.531 247.883,-267.677 231.72,-194 226.408,-169.782 227.774,-162.664 217.72,-140 214.713,-133.221 210.451,-126.287 206.411,-120.399"/>
</g>
<!-- Fleet -->
<g id="node5" class="node"><title>Fleet</title>
<ellipse fill="none" stroke="black" cx="194.72" cy="-212" rx="27.5804" ry="18"/>
<text text-anchor="middle" x="194.72" y="-207.8" font-family="Times,serif" font-size="14.00">Fleet</text>
</g>
<!-- ApplicationRecord&#45;&gt;Fleet -->
<g id="edge10" class="edge"><title>ApplicationRecord&#45;&gt;Fleet</title>
<path fill="none" stroke="black" d="M258.076,-393.375C251.028,-383.209 242.528,-369.834 236.72,-357 216.858,-313.108 203.769,-257.452 198.037,-229.957"/>
</g>
<!-- OrderStatus -->
<g id="node6" class="node"><title>OrderStatus</title>
<ellipse fill="none" stroke="black" cx="317.72" cy="-266" rx="52.202" ry="18"/>
<text text-anchor="middle" x="317.72" y="-261.8" font-family="Times,serif" font-size="14.00">OrderStatus</text>
</g>
<!-- ApplicationRecord&#45;&gt;OrderStatus -->
<g id="edge12" class="edge"><title>ApplicationRecord&#45;&gt;OrderStatus</title>
<path fill="none" stroke="black" d="M276.296,-393.475C285.342,-365.857 303.11,-311.606 312.151,-284.003"/>
</g>
<!-- Package -->
<g id="node7" class="node"><title>Package</title>
<ellipse fill="none" stroke="black" cx="295.72" cy="-18" rx="39.6385" ry="18"/>
<text text-anchor="middle" x="295.72" y="-13.8" font-family="Times,serif" font-size="14.00">Package</text>
</g>
<!-- ApplicationRecord&#45;&gt;Package -->
<g id="edge13" class="edge"><title>ApplicationRecord&#45;&gt;Package</title>
<path fill="none" stroke="black" d="M313.494,-396.45C345.842,-382.822 384.72,-358.618 384.72,-321 384.72,-321 384.72,-321 384.72,-103 384.72,-68.7929 349.519,-44.388 323.393,-30.9856"/>
</g>
<!-- User -->
<g id="node8" class="node"><title>User</title>
<ellipse fill="none" stroke="black" cx="426.72" cy="-158" rx="27" ry="18"/>
<text text-anchor="middle" x="426.72" y="-153.8" font-family="Times,serif" font-size="14.00">User</text>
</g>
<!-- ApplicationRecord&#45;&gt;User -->
<g id="edge15" class="edge"><title>ApplicationRecord&#45;&gt;User</title>
<path fill="none" stroke="black" d="M329.028,-399.638C354.239,-391.943 381.789,-378.92 398.72,-357 440.952,-302.324 434.446,-213.008 429.455,-175.945"/>
</g>
<!-- Bus&#45;&gt;Fleet -->
<g id="edge1" class="edge"><title>Bus&#45;&gt;Fleet</title>
<path fill="none" stroke="#1453a4" d="M160.58,-294.126C165.402,-276.661 173.54,-253.458 180.867,-236.342"/>
<ellipse fill="none" stroke="#1453a4" cx="159.553" cy="-298.097" rx="4.00001" ry="4.00001"/>
<ellipse fill="#1453a4" stroke="#1453a4" cx="182.534" cy="-232.602" rx="4.00002" ry="4.00002"/>
</g>
<!-- Bus&#45;&gt;Package -->
<g id="edge2" class="edge"><title>Bus&#45;&gt;Package</title>
<path fill="none" stroke="#8d8656" d="M149.163,-294.553C132.54,-242.109 102.902,-118.35 167.72,-54 188.288,-33.5811 219.551,-24.7784 246.031,-21.106"/>
<ellipse fill="none" stroke="#8d8656" cx="150.462" cy="-298.535" rx="4.00001" ry="4.00001"/>
<polygon fill="#8d8656" stroke="#8d8656" points="246.356,-21.0679 256.813,-24.3688 251.322,-20.4838 256.287,-19.8996 256.287,-19.8996 256.287,-19.8996 251.322,-20.4838 255.762,-15.4305 246.356,-21.0679 246.356,-21.0679"/>
</g>
<!-- City&#45;&gt;Fleet -->
<g id="edge4" class="edge"><title>City&#45;&gt;Fleet</title>
<path fill="none" stroke="#bb8299" d="M200.549,-129.961C201.725,-146.156 201.775,-167.257 200.698,-183.867"/>
<ellipse fill="none" stroke="#bb8299" cx="200.189" cy="-125.972" rx="4" ry="4"/>
<polygon fill="#bb8299" stroke="#bb8299" points="200.686,-184.006 195.351,-193.586 200.261,-188.987 199.835,-193.969 199.835,-193.969 199.835,-193.969 200.261,-188.987 204.319,-194.352 200.686,-184.006 200.686,-184.006"/>
</g>
<!-- City&#45;&gt;Package -->
<g id="edge5" class="edge"><title>City&#45;&gt;Package</title>
<path fill="none" stroke="#7fc171" d="M176.984,-80.9441C172.016,-72.0186 169.411,-61.9642 175.389,-54 191.632,-32.3599 220.491,-23.4853 245.876,-20.0803"/>
<ellipse fill="none" stroke="#7fc171" cx="179.205" cy="-84.4262" rx="4.00002" ry="4.00002"/>
<polygon fill="#7fc171" stroke="#7fc171" points="246.187,-20.0466 256.615,-23.4389 251.158,-19.5059 256.129,-18.9653 256.129,-18.9653 256.129,-18.9653 251.158,-19.5059 255.642,-14.4917 246.187,-20.0466 246.187,-20.0466"/>
<text text-anchor="middle" x="200.386" y="-56.8" font-family="Times,serif" font-size="14.00">origin_id</text>
</g>
<!-- City&#45;&gt;Package -->
<g id="edge6" class="edge"><title>City&#45;&gt;Package</title>
<path fill="none" stroke="#bf70b7" d="M215.666,-83.4828C225.699,-74.3291 237.988,-63.3939 249.396,-54 255.174,-49.2425 261.497,-44.3004 267.563,-39.6811"/>
<ellipse fill="none" stroke="#bf70b7" cx="212.687" cy="-86.2177" rx="4.00002" ry="4.00002"/>
<polygon fill="#bf70b7" stroke="#bf70b7" points="267.611,-39.6446 278.307,-37.2245 271.606,-36.6371 275.6,-33.6296 275.6,-33.6296 275.6,-33.6296 271.606,-36.6371 272.893,-30.0346 267.611,-39.6446 267.611,-39.6446"/>
<text text-anchor="middle" x="288.382" y="-56.8" font-family="Times,serif" font-size="14.00">destination_id</text>
</g>
<!-- Fleet&#45;&gt;Bus -->
<g id="edge9" class="edge"><title>Fleet&#45;&gt;Bus</title>
<path fill="none" stroke="#3f2472" d="M191.841,-237.943C187.163,-254.87 179.382,-277.162 172.243,-294.084"/>
<ellipse fill="none" stroke="#3f2472" cx="192.867" cy="-233.984" rx="4.00001" ry="4.00001"/>
<polygon fill="#3f2472" stroke="#3f2472" points="172.184,-294.216 164.02,-301.537 170.16,-298.788 168.135,-303.359 168.135,-303.359 168.135,-303.359 170.16,-298.788 172.25,-305.181 172.184,-294.216 172.184,-294.216"/>
</g>
<!-- Fleet&#45;&gt;City -->
<g id="edge8" class="edge"><title>Fleet&#45;&gt;City</title>
<path fill="none" stroke="#30e6fa" d="M188.87,-185.743C187.67,-168.962 187.67,-147.013 188.872,-130.236"/>
<ellipse fill="none" stroke="#30e6fa" cx="189.249" cy="-189.985" rx="4" ry="4"/>
<ellipse fill="#30e6fa" stroke="#30e6fa" cx="189.253" cy="-125.973" rx="4" ry="4"/>
</g>
<!-- OrderStatus&#45;&gt;Package -->
<g id="edge11" class="edge"><title>OrderStatus&#45;&gt;Package</title>
<path fill="none" stroke="#09d7af" d="M325.439,-240.331C336.738,-199.802 353.861,-117.311 328.72,-54 327.01,-49.6922 324.49,-45.6072 321.592,-41.8508"/>
<ellipse fill="none" stroke="#09d7af" cx="324.311" cy="-244.246" rx="4.00001" ry="4.00001"/>
<polygon fill="#09d7af" stroke="#09d7af" points="321.441,-41.6804 318.18,-31.2104 318.126,-37.9371 314.811,-34.1937 314.811,-34.1937 314.811,-34.1937 318.126,-37.9371 311.442,-37.177 321.441,-41.6804 321.441,-41.6804"/>
</g>
<!-- User&#45;&gt;Package -->
<g id="edge14" class="edge"><title>User&#45;&gt;Package</title>
<path fill="none" stroke="#5bf5a1" d="M426.275,-131.406C424.519,-108.351 418.412,-74.955 398.72,-54 384.403,-38.764 363.207,-30.1602 343.759,-25.3017"/>
<ellipse fill="none" stroke="#5bf5a1" cx="426.523" cy="-135.695" rx="4" ry="4"/>
<polygon fill="#5bf5a1" stroke="#5bf5a1" points="343.556,-25.2566 334.771,-18.6943 338.675,-24.1719 333.794,-23.0871 333.794,-23.0871 333.794,-23.0871 338.675,-24.1719 332.818,-27.4799 343.556,-25.2566 343.556,-25.2566"/>
</g>
</g>
</svg>
